M48
;Layer_Color=9474304
;FILE_FORMAT=4:4
METRIC,LZ
;TYPE=PLATED
T1F00S00C0.2500
T2F00S00C0.4000
T3F00S00C0.5000
T4F00S00C1.0000
T5F00S00C1.3000
T6F00S00C1.4000
T7F00S00C1.5000
T8F00S00C1.6000
T9F00S00C3.2000
T10F00S00C4.4000
;TYPE=NON_PLATED
T11F00S00C0.3000
T12F00S00C2.0000
%
T01
X00008Y-00347
X00065
Y-00321
Y-0031
Y-00279
X00074
X00031Y-0027
X00182Y-00301
X002Y-00235
X0029
Y-0028
X00586Y-00238
X00594Y-00245
X00618
X00647Y-0024
X00659
Y-00216
X00647
Y-00159
X00659
Y-00135
X00647
X00648Y-00099
Y-00082
X00567Y-00106
X00585Y-00164
X00594Y-00199
X0077Y-00233
Y-0024
X00779Y-00236
Y-00359
X0077Y-00362
Y-00355
X00761Y-00359
X01075Y-0035
X01089Y-00327
X01095Y-00299
X01074Y-00277
X0107Y-0026
X01062
X01074Y-00242
X01095Y-0025
X01074Y-00199
X01065Y-00164
X01047Y-00107
X01128Y-00099
Y-00082
X01127Y-00135
X01139
Y-00159
X01127
Y-00216
X01139
Y-0024
X01127
X01128Y-00285
X01118Y-00277
Y-00297
X01115Y-00317
X01138
X0115
X01157Y-00291
Y-00283
X01154Y-00266
X01176Y-00268
Y-00276
X01181Y-00247
Y-00239
X01189Y-00247
X01198Y-00249
Y-00256
X01212Y-00234
X01168Y-0022575
Y-0021775
X01138Y-00277
X0114Y-00341
X01129
X01115Y-00353
X01202Y-00307
X01221Y-00288
X01195Y-00147
Y-00047
X01128Y-00045
Y-00063
X01123Y-00005
X01121Y00044
Y0006
X01139Y00077
X01141Y00091
X01132Y00099
X01129424Y00112
X01124562Y00127
X01128Y00161
Y00178
Y00197
Y00215
X01168Y00204
Y00258
X01178
X01187Y00285
X01215
Y00272
Y0026
Y00247
Y00235
X01143Y0026
X01129Y00269
Y00278
Y00287
Y00296
X01134Y00315
X0115Y00306
X01173
X01195Y00147
Y00133
Y00043
X01093Y00039
X01087Y00033
X01081Y00027
X01075Y00022
X01069Y00016
X01066Y00039
X0107Y00056
X01078
X01061
X01065Y00063
X01085998Y00071
X01092Y00066
X01097Y00059
Y00093
X01081Y00115
X010765Y00130242
X01078Y00147
X01084Y00157
X01093
X01102
X01111Y00156
X01068
X01056
X01067Y00107749
X01031Y00099
X01024Y00092
X01006Y00099
X00998Y00087
X00984Y00085
Y00065
X00986Y0004
Y00026
X0096
X00945Y00029
Y00038
Y00047
X00946Y00065
Y00085
X00945875Y00105
X00984
X01024Y00128
X01006Y00058
Y00049
X01033Y00039
X01039Y00033
X01031Y00005
X01014Y00011
X01007Y00004
X00994Y00001
X00985Y-00005
X00965
X00944
Y-00015
X00945Y00013
X00915Y0002
Y00029
X0091Y-00005
X00903Y00065
X01003Y-00028
X01019Y-00019
X01047Y-00022
Y-00032
X01057
X01067
X01081Y-00041
X01089
X01099Y-00029
X01107Y-00021
X01097Y00005
X01089Y-00003
X01109Y00018
X01051Y-00069
X01043
X01016Y-00071
X00994
X00986
X01061Y00249
X01093
X0106Y0028
X01063Y00311
X01071
X00779Y00236
X0077Y00233
Y0024
X00761Y00236
X00607Y00235
X00588
X00568
Y00132
X00588
X00607
Y00048
X00602Y0004
X00593
X00588Y00048
X00567
X00564Y00009
X00573
X00582
X00591
Y-00018
X0058
X00567Y-00031
X00542Y-00028
X00518Y-0001
X00504
X00495
X00485
X00473Y00002
X00465Y-00015
X00455Y-00005
X0043
X00435Y0002
Y00029
X00425Y00045
X00427Y00065
X0041Y00075
Y00105
X00466
Y00085
Y00065
X00465Y00047
Y00038
Y00029
X00474
X00507Y00038
Y00046
X00504Y00065
Y00085
Y00105
X00513Y00005
X00563Y-00069
X00571
X00601Y-00041
X00609
X00648Y-00045
Y-00063
X00293Y00201
X00268
X00242
X00201Y00263
X0018Y00295
X0017Y00308
X00159Y00252
X00075Y0031
X00055
X00275Y00301
X0028Y0028
X00275Y00332
X00288Y00336
X00294Y00374
X00282
X0004Y00347
X0001
X00588Y00372
X00761Y00359
X0077Y00362
Y00355
X00779Y00359
X01062Y00341
X01072
X01108Y00371
Y00379
X01108Y00388
X0112
X0113
Y00362
X0112
X01124Y00341
X0112Y00321
X0114Y00324
T02
X00109Y-00311
X00165Y-00283
X00218Y-00268
X0023
X00242
X00495Y-00115
X00524Y-00081
X01004
X00975Y-00115
X00966Y-00071
Y-00062
Y-00053
Y-00044
X00957
Y-00035
X00966149
X00975
Y-00044
Y-00053
X00957
Y-00062
Y-00071
X00486
X00477
Y-00062
Y-00053
Y-00044
Y-00035
X00486149
X00495
Y-00044
Y-00053
X00486
Y-00062
Y-00044
X00261Y00258
X00249
X002015Y002515
T03
X0005Y-00095
X0011
X0017Y-000886
X0019
X0021
X0023
Y-001036
Y-001246
Y-0014
X0021
X0019
X0017Y-00138581
X0025Y-0014
Y-000886
X0027
X0029
X0031Y-0014
Y-00172
X00295
X0028
Y-00188
X00295
X0031
X00312Y-0022
X00327
X00342
X0034Y-00188
X00325
Y-00172
X0034
Y-0014
X00325
X0033Y-002678
Y-002875
Y-00307
X00355Y-00318
Y-00332
X00365Y-00325
Y-00339
Y-00311
X0037Y-002875
Y-002678
X0035
X00411Y-00311
X00411Y-00325
X00411Y-00339
X00421Y-00332
Y-00318
X00449Y-00318
Y-00332
X00459Y-00325
Y-00339
Y-00311
X00505Y-00311
Y-00325
Y-00339
X00515Y-00332
Y-00318
X0054Y-00307
Y-002875
Y-002678
X0052
X005
Y-002875
X00512Y-00238
Y-00223
Y-00208
Y-00194
Y-00179
Y-00164
Y-00149
Y-00134
X00528Y-00134
Y-00149
Y-00164
Y-00179
Y-00194
Y-00208
Y-00223
Y-00238
X00569Y-00223
Y-00208
Y-00194
Y-00179
Y-00164
Y-00149
Y-00134
X00472Y-00134
Y-00149
Y-00164
Y-00179
Y-00194
Y-00208
Y-00223
Y-00238
X005Y-003625
Y-00382
X0052Y-00382197
X0054Y-00382
Y-003625
Y-003428
X0065Y-00362303
Y-00381802
X0067Y-00382
Y-003625
X0069Y-00382197
X0071Y-00382
Y-003625
Y-00307
Y-002875
Y-002678
X0069
X0067
Y-002875
Y-00307
X0069Y-00307197
X0037Y-003625
Y-00382
X0035Y-00382197
X0033Y-00382
Y-003625
X0073Y-00362303
Y-00381802
X0082
Y-00362303
X0084Y-003625
Y-00382
X0086Y-00382197
X0088Y-00382
Y-003625
X009Y-00362303
Y-00381802
X0099
Y-00362303
X0101Y-003625
Y-00382
X0103Y-00382197
X0105Y-00382
Y-003625
X0103Y-00321
Y-00307197
X0101Y-00307
X00997
Y-00287
X0101Y-002875
X0101Y-00321
X01008Y-00255
X00992
Y-00238
Y-00223
Y-00208
Y-00194
Y-00179
Y-00164
Y-00149
Y-00134
X01008
Y-00149
Y-00164
Y-00179
Y-00194
Y-00208
Y-00223
Y-00238
X01049Y-00238
Y-00223
Y-00208
Y-00194
Y-00179
Y-00164
Y-00149
Y-00134
X00952Y-00134
Y-00149
Y-00164
Y-00179
Y-00194
Y-00208
Y-00223
Y-00238
Y-00255
X0088Y-002678
Y-002875
Y-00307
X0086Y-00307197
X0084Y-00307
Y-002875
Y-002678
X0086
X00896Y00181
X00908
X0092
Y00213
X00908
X00896
Y00229
X00908
X0092
Y00261
X00908
X00896
X0088Y00268
X0088Y00288
X0088Y003072
X0086
X0084
Y002875
Y00268
X0086Y00267803
X00995Y00268
X0101
Y002875
X00995
Y003072
X0101
X0103
Y00267803
X01023Y0022
Y00205
Y0019
Y00176
Y00161
Y00146
X00983
Y00161
Y00176
Y0019
Y00205
Y0022
X00967
Y00205
Y0019
Y00176
Y00161
Y00146
Y00131
X00983
X0071Y00268
Y002875
Y003072
X0069
X0067
Y002875
Y00268
X0069Y00267803
X0054Y00268
Y00283
Y00300066
X00515Y00313
X00505Y00306
X005Y002875
Y00268
X0052Y00267803
X00504Y00235
Y0022
Y00205
Y0019
Y00176
Y00161
Y00146
Y00131
X00486
Y00146
Y00161
Y00176
Y0019
Y00205
Y0022
Y00235
X0044Y00229
X00428
X00416
Y00213
X00428
X0044
Y00181
X00428
X00416
Y00261
X00428
X0044
X00449Y00318
X00459Y00311
X00421Y00318
X00411Y00311
X00365Y00311
X00355Y00318
X0033Y003072
Y002875
Y00268
X0035Y00267803
X0037Y00268
Y002875
X00542Y00235
Y0022
Y00205
Y0019
Y00176
Y00161
Y00146
Y00131
X0027Y0014
X0025
X0023
Y00125
Y00104
Y000886
X0021
X0019
X0017Y00090019
Y000638
X0019
X0021
X0023
Y000488
Y000278
Y000124
X0021
X0019
X0017Y00012
Y-000124
X0019
X0021
X0023
Y-000274
Y-000484
Y-000638
X0021
X0019
X0017Y-00064
X0025Y-000638
X0027
X0029
Y-000124
X0027
X0025
Y000124
X0027
X0029
Y000638
X0027
X0025
Y000886
X0027
X0029
X0021Y0014
X0019
X0017
X0011Y00095
X0005
Y00025
Y-00025
X0011
Y00025
X00355Y00332
X00365Y00325
Y00339
X0037Y003625
X0037Y00375
Y00388
X0035
X0033
Y00375
Y00362
X004097Y003625
X0041Y00375
X004297
X004294Y003625
X00421Y00332
X00411Y00325
X00411Y00339
X00449Y00332
X00459Y00325
Y00339
X004803Y003625
X0048Y00375
X005
X005Y003625
X00505Y00334
Y0032
X00515Y00327
X0054Y00343
Y003625
X0054Y00375
X0056
X005597Y003625
X006503
Y00343
X0067
Y003625
X0069Y00342803
X0071Y00343
Y003625
X007297
Y00343
X008203
Y003625
X0084
Y00343
X0086Y00342803
X0088Y00343
Y003625
X008997
Y00343
X0101Y003428
Y003625
Y003822
X0103
X0105
Y003625
Y003428
X0103
T04
X0035Y-003625
Y-002875
X0052
Y-003625
X0069
Y-002875
X0086
Y-003625
X0103
Y-002875
Y002875
X0086
X0069
X0052
X0035
Y003625
X0052
X0069
X0086
X0103
T05
X012355Y-0031075
Y-0023925
T06
X00137Y-003635
Y-003285
Y-002935
Y-002585
Y00258
Y00293
Y00328
Y00363
T07
X001938Y-001143
X0027
Y-000381
X001938
Y000381
Y001143
X0027
Y000381
T08
X003776Y-001778
Y-00127
X006824
Y-001778
X008576
Y-00127
X011624
Y-001778
Y-000762
Y-000254
Y000254
Y000762
Y00127
Y001778
X008576
Y00127
Y000762
Y000254
Y-000254
Y-000762
X006824
Y-000254
Y000254
Y000762
Y00127
Y001778
X003776
Y00127
Y000762
Y000254
Y-000254
Y-000762
T09
X0022Y-0035
X001586Y-001905
X0119Y-0035
X001586Y001905
X0022Y0035
X0119
T10
X0008Y-001778
Y-0006
Y0006
Y001778
T11
X0061Y-001885
X0062
X00615Y-00181
X0062Y-001735
X0061
X0109
X011
X01095Y-00181
X0109Y-001885
X011
X011Y002955
X0111
X01105Y00303
X0111Y003105
X011
T12
X012Y-0019
Y-0009
Y0
Y0009
Y0019
M30
