G04 Layer_Physical_Order=5*
G04 Layer_Color=16737945*
%FSLAX44Y44*%
%MOMM*%
G71*
G01*
G75*
%ADD18C,0.3000*%
%ADD20C,0.5000*%
%ADD21C,0.8000*%
%ADD24C,2.5000*%
%ADD25C,7.4000*%
%ADD26C,1.9000*%
%ADD27C,8.0000*%
%ADD28C,3.6000*%
%ADD29C,0.5000*%
%ADD31C,0.5500*%
%ADD32C,1.0000*%
%ADD33C,0.7000*%
%ADD34C,0.8000*%
G36*
X40045Y406666D02*
X1200000D01*
X1200140Y406694D01*
X1206096Y406303D01*
X1212088Y405112D01*
X1217872Y403148D01*
X1223352Y400446D01*
X1228431Y397052D01*
X1233024Y393024D01*
X1237052Y388431D01*
X1240446Y383352D01*
X1243148Y377873D01*
X1245112Y372088D01*
X1246303Y366096D01*
X1246621Y361251D01*
X1246666Y360000D01*
X1246666Y360000D01*
X1246666Y358737D01*
Y-358735D01*
X1246666Y-360000D01*
X1246621Y-361251D01*
X1246303Y-366096D01*
X1245112Y-372088D01*
X1243148Y-377872D01*
X1240446Y-383352D01*
X1237052Y-388431D01*
X1233024Y-393024D01*
X1228431Y-397052D01*
X1223352Y-400446D01*
X1217872Y-403148D01*
X1212088Y-405112D01*
X1206096Y-406303D01*
X1201261Y-406620D01*
X1200000Y-406666D01*
X1200000Y-406666D01*
X1198748Y-406666D01*
X40000D01*
X40000Y-406666D01*
Y-406666D01*
X38750Y-406618D01*
X34256Y-406264D01*
X28654Y-404919D01*
X23331Y-402714D01*
X18419Y-399704D01*
X14038Y-395962D01*
X10296Y-391581D01*
X7286Y-386669D01*
X5081Y-381346D01*
X3736Y-375744D01*
X3298Y-370181D01*
X3334Y-370000D01*
Y-365000D01*
X65000D01*
X75000Y-375000D01*
X105000D01*
X120000Y-390000D01*
X155000D01*
X165000Y-380000D01*
X165000Y-340000D01*
X199934Y-305066D01*
X295000Y-305066D01*
X298689Y-301377D01*
X299862Y-301863D01*
X299862Y-336961D01*
X299862Y-336962D01*
X299862Y-336962D01*
X300046Y-337885D01*
X300250Y-338912D01*
X300251Y-338912D01*
X300251Y-338913D01*
X300806Y-339744D01*
X301356Y-340566D01*
X301356Y-340566D01*
X301356Y-340566D01*
X306396Y-345605D01*
X307303Y-346211D01*
X308050Y-346709D01*
X308050Y-346710D01*
X308050Y-346710D01*
X309071Y-346913D01*
X310000Y-347098D01*
X352888Y-347098D01*
X360395Y-354605D01*
X362049Y-355710D01*
X364000Y-356098D01*
X424954D01*
X426905Y-355710D01*
X428559Y-354605D01*
X432977Y-350187D01*
X436395Y-353605D01*
X438049Y-354710D01*
X440000Y-355098D01*
X507040D01*
X508991Y-354710D01*
X510645Y-353605D01*
X529152Y-335098D01*
X689999D01*
X1039999Y-335130D01*
X1040000Y-335130D01*
X1040000Y-335130D01*
X1040970Y-334937D01*
X1041951Y-334742D01*
X1041951Y-334742D01*
X1041951Y-334742D01*
X1042782Y-334186D01*
X1043605Y-333637D01*
X1043605Y-333637D01*
X1043605Y-333637D01*
X1048605Y-328637D01*
X1049710Y-326983D01*
X1050098Y-325032D01*
Y-270040D01*
X1049710Y-268089D01*
X1048605Y-266435D01*
X1043565Y-261395D01*
X1041911Y-260290D01*
X1039960Y-259902D01*
X1008656Y-259902D01*
X1008326Y-259967D01*
X1008028Y-259948D01*
X1008009Y-259946D01*
X1008000Y-259946D01*
X1007991Y-259946D01*
X1007972Y-259948D01*
X1007674Y-259967D01*
X1007344Y-259902D01*
X1005112Y-259902D01*
X1003098Y-257888D01*
Y-255655D01*
X1003032Y-255326D01*
X1003052Y-255030D01*
X1003054Y-255010D01*
X1003054Y-255000D01*
X1003054Y-254990D01*
X1003052Y-254970D01*
X1003032Y-254674D01*
X1003098Y-254345D01*
Y-238655D01*
X1003032Y-238326D01*
X1003052Y-238030D01*
X1003054Y-238010D01*
X1003054Y-238000D01*
X1003054Y-237990D01*
X1003052Y-237970D01*
X1003032Y-237675D01*
X1003098Y-237345D01*
Y-223655D01*
X1003032Y-223326D01*
X1003052Y-223030D01*
X1003054Y-223010D01*
X1003054Y-223000D01*
X1003054Y-222990D01*
X1003052Y-222970D01*
X1003032Y-222675D01*
X1003098Y-222345D01*
Y-208655D01*
X1003032Y-208326D01*
X1003052Y-208030D01*
X1003054Y-208010D01*
X1003054Y-208000D01*
X1003054Y-207990D01*
X1003052Y-207970D01*
X1003032Y-207675D01*
X1003098Y-207345D01*
Y-194655D01*
X1003032Y-194326D01*
X1003052Y-194030D01*
X1003054Y-194010D01*
X1003054Y-194000D01*
X1003054Y-193990D01*
X1003052Y-193970D01*
X1003032Y-193675D01*
X1003098Y-193345D01*
Y-179655D01*
X1003032Y-179325D01*
X1003052Y-179030D01*
X1003054Y-179010D01*
X1003054Y-179000D01*
X1003054Y-178990D01*
X1003052Y-178970D01*
X1003032Y-178674D01*
X1003098Y-178344D01*
Y-164655D01*
X1003032Y-164326D01*
X1003052Y-164030D01*
X1003054Y-164010D01*
X1003054Y-164000D01*
X1003054Y-163990D01*
X1003052Y-163970D01*
X1003032Y-163675D01*
X1003098Y-163345D01*
Y-149655D01*
X1003032Y-149326D01*
X1003052Y-149030D01*
X1003054Y-149010D01*
X1003054Y-149000D01*
X1003054Y-148990D01*
X1003052Y-148970D01*
X1003032Y-148674D01*
X1003098Y-148345D01*
Y-134655D01*
X1003032Y-134326D01*
X1003052Y-134030D01*
X1003054Y-134010D01*
X1003054Y-134000D01*
X1003054Y-133990D01*
X1003052Y-133970D01*
X1003032Y-133674D01*
X1003098Y-133345D01*
Y-132000D01*
X1002710Y-130049D01*
X1001605Y-128395D01*
X997605Y-124395D01*
X995951Y-123290D01*
X994000Y-122902D01*
X981572D01*
X981141Y-121632D01*
X981419Y-121419D01*
X982861Y-119539D01*
X983768Y-117350D01*
X984078Y-115000D01*
X983768Y-112650D01*
X982861Y-110461D01*
X981419Y-108581D01*
X979539Y-107139D01*
X977349Y-106232D01*
X975000Y-105922D01*
X972651Y-106232D01*
X970461Y-107139D01*
X968581Y-108581D01*
X967139Y-110461D01*
X966232Y-112650D01*
X965922Y-115000D01*
X966232Y-117350D01*
X967139Y-119539D01*
X968581Y-121419D01*
X968859Y-121632D01*
X968428Y-122902D01*
X886000D01*
X884049Y-123290D01*
X882395Y-124395D01*
X881395Y-125395D01*
X881395Y-125395D01*
X878795Y-127995D01*
X877647Y-127452D01*
X877692Y-127000D01*
X877325Y-123275D01*
X876239Y-119694D01*
X874474Y-116393D01*
X872100Y-113500D01*
X869207Y-111126D01*
X865906Y-109361D01*
X862325Y-108275D01*
X858600Y-107908D01*
X856600D01*
X852875Y-108275D01*
X849294Y-109361D01*
X845993Y-111126D01*
X843100Y-113500D01*
X840726Y-116393D01*
X838961Y-119694D01*
X837875Y-123275D01*
X837508Y-127000D01*
X837875Y-130725D01*
X838961Y-134306D01*
X840726Y-137607D01*
X843100Y-140500D01*
X845993Y-142874D01*
X849294Y-144639D01*
X852875Y-145725D01*
X856600Y-146092D01*
X858600D01*
X862325Y-145725D01*
X865906Y-144639D01*
X869207Y-142874D01*
X872100Y-140500D01*
X873632Y-138633D01*
X874902Y-139088D01*
Y-165712D01*
X873632Y-166167D01*
X872100Y-164300D01*
X869207Y-161926D01*
X865906Y-160161D01*
X862325Y-159075D01*
X858600Y-158708D01*
X856600D01*
X852875Y-159075D01*
X849294Y-160161D01*
X845993Y-161926D01*
X843100Y-164300D01*
X840726Y-167193D01*
X838961Y-170494D01*
X837875Y-174075D01*
X837508Y-177800D01*
X837875Y-181525D01*
X838961Y-185106D01*
X840726Y-188407D01*
X843100Y-191300D01*
X845993Y-193674D01*
X849294Y-195439D01*
X852875Y-196525D01*
X856600Y-196892D01*
X858600D01*
X862325Y-196525D01*
X865906Y-195439D01*
X869207Y-193674D01*
X872100Y-191300D01*
X873632Y-189433D01*
X874902Y-189888D01*
Y-252888D01*
X872888Y-254902D01*
X543000Y-254902D01*
X525112Y-254902D01*
X523098Y-252888D01*
Y-238655D01*
X523032Y-238325D01*
X523052Y-238030D01*
X523054Y-238010D01*
X523054Y-238000D01*
X523054Y-237990D01*
X523052Y-237969D01*
X523032Y-237675D01*
X523098Y-237345D01*
Y-223655D01*
X523032Y-223325D01*
X523052Y-223030D01*
X523054Y-223010D01*
X523054Y-223000D01*
X523054Y-222990D01*
X523052Y-222969D01*
X523032Y-222675D01*
X523098Y-222345D01*
Y-208655D01*
X523032Y-208325D01*
X523052Y-208030D01*
X523054Y-208010D01*
X523054Y-208000D01*
X523054Y-207990D01*
X523052Y-207969D01*
X523032Y-207675D01*
X523098Y-207345D01*
Y-194655D01*
X523032Y-194325D01*
X523052Y-194030D01*
X523054Y-194010D01*
X523054Y-194000D01*
X523054Y-193990D01*
X523052Y-193969D01*
X523032Y-193675D01*
X523098Y-193345D01*
Y-179655D01*
X523032Y-179325D01*
X523052Y-179030D01*
X523054Y-179010D01*
X523054Y-179000D01*
X523054Y-178990D01*
X523052Y-178969D01*
X523032Y-178674D01*
X523098Y-178345D01*
Y-164655D01*
X523032Y-164325D01*
X523052Y-164030D01*
X523054Y-164010D01*
X523054Y-164000D01*
X523054Y-163990D01*
X523052Y-163969D01*
X523032Y-163675D01*
X523098Y-163345D01*
Y-149655D01*
X523032Y-149325D01*
X523052Y-149030D01*
X523054Y-149010D01*
X523054Y-149000D01*
X523054Y-148990D01*
X523052Y-148969D01*
X523032Y-148675D01*
X523098Y-148345D01*
Y-134655D01*
X523032Y-134325D01*
X523052Y-134030D01*
X523054Y-134010D01*
X523054Y-134000D01*
X523054Y-133990D01*
X523052Y-133969D01*
X523032Y-133674D01*
X523098Y-133345D01*
Y-132000D01*
X523098Y-132000D01*
X523098Y-132000D01*
X522899Y-130998D01*
X522710Y-130049D01*
X522710Y-130049D01*
X522710Y-130049D01*
X522130Y-129182D01*
X521605Y-128395D01*
X521605Y-128395D01*
X521604Y-128395D01*
X517604Y-124395D01*
X516643Y-123753D01*
X515951Y-123290D01*
X515950Y-123290D01*
X515950Y-123290D01*
X514970Y-123095D01*
X514000Y-122902D01*
X501572Y-122902D01*
X501141Y-121632D01*
X501419Y-121419D01*
X502862Y-119539D01*
X503768Y-117350D01*
X504078Y-115000D01*
X503768Y-112650D01*
X502862Y-110461D01*
X501419Y-108581D01*
X499539Y-107139D01*
X497350Y-106232D01*
X495000Y-105922D01*
X492650Y-106232D01*
X490461Y-107139D01*
X488581Y-108581D01*
X487138Y-110461D01*
X486232Y-112650D01*
X485922Y-115000D01*
X486232Y-117350D01*
X487138Y-119539D01*
X488581Y-121419D01*
X488859Y-121632D01*
X488428Y-122902D01*
X403058Y-122902D01*
X401107Y-123291D01*
X399454Y-124396D01*
X398666Y-125183D01*
X397471Y-124755D01*
X397325Y-123275D01*
X396239Y-119694D01*
X394474Y-116393D01*
X392100Y-113500D01*
X389207Y-111126D01*
X385906Y-109361D01*
X382325Y-108275D01*
X378600Y-107908D01*
X376600D01*
X372875Y-108275D01*
X369294Y-109361D01*
X365993Y-111126D01*
X363100Y-113500D01*
X360726Y-116393D01*
X358961Y-119694D01*
X357875Y-123275D01*
X357508Y-127000D01*
X357875Y-130725D01*
X358961Y-134306D01*
X360726Y-137607D01*
X363100Y-140500D01*
X365993Y-142874D01*
X369294Y-144639D01*
X372875Y-145725D01*
X376600Y-146092D01*
X378600D01*
X382325Y-145725D01*
X385906Y-144639D01*
X389207Y-142874D01*
X392100Y-140500D01*
X393632Y-138633D01*
X394902Y-139088D01*
X394902Y-165712D01*
X393632Y-166167D01*
X392100Y-164300D01*
X389207Y-161926D01*
X385906Y-160161D01*
X382325Y-159075D01*
X378600Y-158708D01*
X376600D01*
X372875Y-159075D01*
X369294Y-160161D01*
X365993Y-161926D01*
X363100Y-164300D01*
X360726Y-167193D01*
X358961Y-170494D01*
X357875Y-174075D01*
X357508Y-177800D01*
X357875Y-181525D01*
X358961Y-185106D01*
X360726Y-188407D01*
X363100Y-191300D01*
X365993Y-193674D01*
X369294Y-195439D01*
X372875Y-196525D01*
X376600Y-196892D01*
X378600D01*
X382325Y-196525D01*
X385906Y-195439D01*
X389207Y-193674D01*
X392100Y-191300D01*
X393632Y-189433D01*
X394902Y-189888D01*
X394902Y-244941D01*
X395160Y-246237D01*
X395290Y-246892D01*
X395290Y-246892D01*
X395290Y-246892D01*
X395776Y-247619D01*
X396395Y-248546D01*
X396578Y-248729D01*
X396092Y-249902D01*
X360112Y-249902D01*
X355040Y-244829D01*
X355039Y-187942D01*
X354836Y-186920D01*
X354651Y-185991D01*
X354651Y-185991D01*
X354651Y-185991D01*
X354112Y-185185D01*
X353546Y-184338D01*
X349710Y-180500D01*
X353605Y-176605D01*
X354710Y-174951D01*
X355098Y-173000D01*
X355098Y-9000D01*
X354710Y-7049D01*
X353605Y-5395D01*
X349047Y-837D01*
X348746Y0D01*
X349047Y837D01*
X353605Y5395D01*
X354710Y7049D01*
X355098Y9000D01*
X355098Y197888D01*
X357112Y199902D01*
X394999Y199901D01*
X394999Y199901D01*
X394999Y199901D01*
X396058Y200112D01*
X396950Y200289D01*
X396950Y200289D01*
X396950Y200289D01*
X398604Y201394D01*
X398729Y201519D01*
X399902Y201033D01*
Y185000D01*
Y175000D01*
X400290Y173049D01*
X401395Y171395D01*
X406395Y166395D01*
X408049Y165290D01*
X410000Y164902D01*
X417889Y164902D01*
X421902Y160889D01*
X421902Y129000D01*
X422290Y127049D01*
X423395Y125395D01*
X424395Y124395D01*
X426049Y123290D01*
X428000Y122902D01*
X438888Y122902D01*
X446395Y115395D01*
X448049Y114290D01*
X448049Y114290D01*
X449118Y114078D01*
X450000Y113902D01*
X487000D01*
X488951Y114290D01*
X490605Y115395D01*
X495605Y120395D01*
X496710Y122049D01*
X497098Y124000D01*
X497098Y253000D01*
X497098Y253001D01*
X497098Y253001D01*
X496973Y253632D01*
X497710Y254902D01*
X540000D01*
X880888Y254902D01*
X882902Y252888D01*
X882902Y225000D01*
X883071Y224151D01*
X883290Y223049D01*
X883290Y223049D01*
Y223049D01*
X883708Y222424D01*
X884311Y221521D01*
X881395Y218605D01*
X880290Y216951D01*
X879902Y215000D01*
Y185000D01*
Y175000D01*
X880290Y173049D01*
X881395Y171395D01*
X886395Y166395D01*
X888049Y165290D01*
X890000Y164902D01*
X897889Y164902D01*
X901902Y160889D01*
X901902Y129000D01*
X902290Y127049D01*
X903395Y125395D01*
X904395Y124395D01*
X906049Y123290D01*
X908000Y122902D01*
X918888Y122902D01*
X926395Y115395D01*
X928049Y114290D01*
X928049Y114290D01*
X929118Y114078D01*
X930000Y113902D01*
X967000D01*
X968951Y114290D01*
X970605Y115395D01*
X975605Y120395D01*
X976710Y122049D01*
X977098Y124000D01*
X977098Y253000D01*
X977098Y253001D01*
X977098Y253001D01*
X976973Y253632D01*
X977710Y254902D01*
X1041000Y254902D01*
X1042951Y255290D01*
X1044605Y256395D01*
X1049605Y261396D01*
X1050711Y263050D01*
X1051098Y265000D01*
X1051098Y324999D01*
X1050905Y325969D01*
X1050710Y326949D01*
X1050710Y326949D01*
X1050710Y326949D01*
X1050174Y327752D01*
X1049605Y328603D01*
X1044604Y333605D01*
X1044604Y333605D01*
X1044604Y333605D01*
X1043782Y334154D01*
X1042951Y334710D01*
X1042950Y334710D01*
X1042950Y334710D01*
X1041970Y334905D01*
X1041000Y335098D01*
X1041000Y335098D01*
X1040999Y335098D01*
X530112Y335098D01*
X526605Y338605D01*
X526605Y338605D01*
X526605Y338605D01*
X513225Y351984D01*
X513015Y352125D01*
X512855Y352320D01*
X511188Y353688D01*
X510740Y354234D01*
X510544Y354395D01*
X510404Y354605D01*
X509781Y355021D01*
X509202Y355496D01*
X508960Y355569D01*
X508750Y355710D01*
X508015Y355856D01*
X507299Y356073D01*
X507047Y356049D01*
X506799Y356098D01*
X440000D01*
X438049Y355710D01*
X436395Y354605D01*
X432500Y350710D01*
X428605Y354605D01*
X426951Y355710D01*
X425000Y356098D01*
X365000D01*
X363049Y355710D01*
X361395Y354605D01*
X357395Y350605D01*
X351954Y345164D01*
X320000D01*
X318049Y344776D01*
X316395Y343671D01*
X316173Y343449D01*
X315000Y343935D01*
Y345122D01*
X310188Y349934D01*
X265000D01*
X260240Y345174D01*
Y315100D01*
X255140Y310000D01*
X195000Y310000D01*
X170000Y335000D01*
X170000Y385000D01*
X160000Y395000D01*
X120000D01*
X100000Y375000D01*
X75000D01*
X67000Y367000D01*
X3334D01*
Y369955D01*
X3334Y369955D01*
X3334D01*
X3382Y371205D01*
X3736Y375706D01*
X5083Y381315D01*
X7290Y386644D01*
X10304Y391563D01*
X14051Y395949D01*
X18437Y399696D01*
X23356Y402710D01*
X28685Y404917D01*
X34294Y406264D01*
X39864Y406702D01*
X40045Y406666D01*
D02*
G37*
G36*
X430000Y346000D02*
X430000Y315000D01*
X399999Y284999D01*
X399998Y209998D01*
X394999Y204999D01*
X355000Y205000D01*
X350000Y200000D01*
X350000Y9000D01*
X345000Y4000D01*
X45000D01*
X40000Y9000D01*
Y100000D01*
X45000Y105000D01*
X131000D01*
X164000Y72000D01*
X294940D01*
X299940Y77000D01*
X310188Y87248D01*
Y153000D01*
Y235188D01*
X315000Y240000D01*
Y335066D01*
X320000Y340066D01*
X354066D01*
X361000Y347000D01*
X365000Y351000D01*
X425000D01*
X430000Y346000D01*
D02*
G37*
G36*
X998000Y-132000D02*
Y-133345D01*
X997914Y-134000D01*
X998000Y-134655D01*
Y-148345D01*
X997914Y-149000D01*
X998000Y-149655D01*
Y-163345D01*
X997914Y-164000D01*
X998000Y-164655D01*
Y-178344D01*
X997914Y-179000D01*
X998000Y-179655D01*
Y-193345D01*
X997914Y-194000D01*
X998000Y-194655D01*
Y-207345D01*
X997914Y-208000D01*
X998000Y-208655D01*
Y-222345D01*
X997914Y-223000D01*
X998000Y-223655D01*
Y-237345D01*
X997914Y-238000D01*
X998000Y-238655D01*
Y-254345D01*
X997914Y-255000D01*
X998000Y-255655D01*
Y-260000D01*
X1003000Y-265000D01*
X1007344Y-265000D01*
X1008000Y-265086D01*
X1008656Y-265000D01*
X1039960Y-265000D01*
X1045000Y-270040D01*
Y-325032D01*
X1040000Y-330032D01*
X690000Y-330000D01*
X527040D01*
X507040Y-350000D01*
X440000D01*
X435000Y-345000D01*
Y-300105D01*
X435000Y-299000D01*
X425000Y-289000D01*
Y-255000D01*
X420086Y-250000D01*
X405059Y-250000D01*
X400000Y-244941D01*
X400000Y-131059D01*
X403058Y-128000D01*
X514000Y-128000D01*
X518000Y-132000D01*
Y-133345D01*
X517914Y-134000D01*
X518000Y-134655D01*
Y-148345D01*
X517914Y-149000D01*
X518000Y-149655D01*
Y-163345D01*
X517914Y-164000D01*
X518000Y-164655D01*
Y-178345D01*
X517914Y-179000D01*
X518000Y-179655D01*
Y-193345D01*
X517914Y-194000D01*
X518000Y-194655D01*
Y-207345D01*
X517914Y-208000D01*
X518000Y-208655D01*
Y-222345D01*
X517914Y-223000D01*
X518000Y-223655D01*
Y-237345D01*
X517914Y-238000D01*
X518000Y-238655D01*
Y-255000D01*
X523000Y-260000D01*
X543000Y-260000D01*
X875000Y-260000D01*
X880000Y-255000D01*
Y-180000D01*
Y-134000D01*
X885000Y-129000D01*
X886000Y-128000D01*
X994000D01*
X998000Y-132000D01*
D02*
G37*
G36*
X507566Y350066D02*
X509621Y348380D01*
X523000Y335000D01*
X528000Y330000D01*
X1040999Y330000D01*
X1046000Y324999D01*
X1046001Y265000D01*
X1041000Y260000D01*
X933000Y260000D01*
X928000Y255000D01*
Y226000D01*
X925000Y223000D01*
X890000Y223000D01*
X888000Y225000D01*
X887999Y254999D01*
X883000Y260000D01*
X540000Y260000D01*
X452000D01*
X448000Y256000D01*
Y227000D01*
X443996Y222996D01*
X409004Y222996D01*
X405000Y227000D01*
X405000Y282000D01*
X435000Y312000D01*
X435000Y346000D01*
X440000Y351000D01*
X506799D01*
X507566Y350066D01*
D02*
G37*
G36*
X350000Y-9000D02*
X350000Y-173000D01*
X346000Y-177000D01*
X275000Y-177000D01*
X270000Y-172000D01*
X270000Y-148000D01*
X275000Y-143000D01*
X295000D01*
X300000Y-138000D01*
Y-89255D01*
X300086Y-88600D01*
X300000Y-87945D01*
Y-77000D01*
X295000Y-72000D01*
X163000D01*
X130000Y-105000D01*
X45338D01*
X40000Y-99662D01*
Y-9000D01*
X45000Y-4000D01*
X345000D01*
X350000Y-9000D01*
D02*
G37*
G36*
X492000Y253000D02*
X492000Y124000D01*
X487000Y119000D01*
X450000D01*
X441000Y128000D01*
X428000Y128000D01*
X427000Y129000D01*
X427000Y163000D01*
X420000Y170000D01*
X410000Y170000D01*
X405000Y175000D01*
Y185000D01*
Y215000D01*
X409000Y219000D01*
X447000D01*
X452000Y224000D01*
Y250000D01*
X457000Y255000D01*
X490000Y255000D01*
X492000Y253000D01*
D02*
G37*
G36*
X74886Y245000D02*
X100000D01*
X115000Y230000D01*
X305000D01*
X305090Y229963D01*
Y153000D01*
Y89360D01*
X296335Y80605D01*
X292828Y77098D01*
X166112D01*
X134605Y108605D01*
X132951Y109710D01*
X131000Y110098D01*
X45000D01*
X43049Y109710D01*
X41395Y108605D01*
X41173Y108383D01*
X40000Y108869D01*
Y250000D01*
X44886Y254886D01*
X65000D01*
X74886Y245000D01*
D02*
G37*
G36*
X294902Y-79112D02*
Y-87945D01*
X294968Y-88275D01*
X294948Y-88569D01*
X294946Y-88590D01*
X294946Y-88600D01*
X294946Y-88610D01*
X294948Y-88631D01*
X294968Y-88925D01*
X294902Y-89255D01*
Y-135888D01*
X292888Y-137902D01*
X275000D01*
X273049Y-138290D01*
X271395Y-139395D01*
X266395Y-144395D01*
X265290Y-146049D01*
X264902Y-148000D01*
X264902Y-172000D01*
X265122Y-173103D01*
X265290Y-173951D01*
X265290Y-173951D01*
X265290Y-173951D01*
X265753Y-174644D01*
X266395Y-175604D01*
X270790Y-180000D01*
X266395Y-184395D01*
X265290Y-186049D01*
X264902Y-188000D01*
X264902Y-215000D01*
X265290Y-216951D01*
X266395Y-218605D01*
X266617Y-218827D01*
X266131Y-220000D01*
X190000D01*
X180000Y-230000D01*
X115114D01*
X110114Y-235000D01*
X100114Y-245000D01*
X75000D01*
X65000Y-255000D01*
X45000D01*
X40000Y-250000D01*
Y-108531D01*
X41173Y-108045D01*
X41733Y-108605D01*
X43387Y-109710D01*
X45338Y-110098D01*
X130000D01*
X131951Y-109710D01*
X133605Y-108605D01*
X165112Y-77098D01*
X292888D01*
X294902Y-79112D01*
D02*
G37*
G36*
X972000Y253000D02*
X972000Y124000D01*
X967000Y119000D01*
X930000D01*
X921000Y128000D01*
X908000Y128000D01*
X907000Y129000D01*
X907000Y163000D01*
X900000Y170000D01*
X890000Y170000D01*
X885000Y175000D01*
Y185000D01*
Y215000D01*
X889000Y219000D01*
X927000D01*
X932000Y224000D01*
Y250000D01*
X937000Y255000D01*
X970000Y255000D01*
X972000Y253000D01*
D02*
G37*
G36*
X160000Y380000D02*
X160000Y330000D01*
X190000Y300000D01*
X265000Y300000D01*
X270000Y305000D01*
X270000Y335000D01*
X275000Y340000D01*
X283432Y340000D01*
X284111Y338730D01*
X283526Y337853D01*
X283157Y336000D01*
X283526Y334147D01*
X284576Y332575D01*
X286147Y331526D01*
X288000Y331157D01*
X289853Y331526D01*
X291425Y332575D01*
X292474Y334147D01*
X292843Y336000D01*
X292474Y337853D01*
X291889Y338730D01*
X292568Y340000D01*
X300000Y340000D01*
X305000Y335000D01*
X305000Y245000D01*
X300000Y240000D01*
X169000D01*
X120000Y240000D01*
X105000Y255000D01*
X82000Y255000D01*
X70000Y267000D01*
X35000D01*
X30000Y262000D01*
Y-261000D01*
X36000Y-267000D01*
X70000Y-267000D01*
X82000Y-255000D01*
X105000Y-255000D01*
X115000Y-245000D01*
X120000Y-240000D01*
X185000D01*
X190000Y-235000D01*
X195000Y-230000D01*
X290000D01*
X295000Y-235000D01*
Y-285000D01*
X285000Y-295000D01*
X195000Y-295000D01*
X155000Y-335000D01*
X155000Y-375000D01*
X150000Y-380000D01*
X125000D01*
X120000Y-375000D01*
X110000Y-365000D01*
X82000Y-365000D01*
X70000Y-353000D01*
X3334Y-353000D01*
Y353000D01*
X36000D01*
X69999Y352999D01*
X82000Y365000D01*
X105066Y365000D01*
X125066Y385000D01*
X155000Y385000D01*
X160000Y380000D01*
D02*
G37*
G36*
X349941Y-187942D02*
X349942Y-246941D01*
X358001Y-255000D01*
X415000Y-255000D01*
X420000Y-260000D01*
X420000Y-290150D01*
X430000Y-300151D01*
X430000Y-310000D01*
Y-345954D01*
X424954Y-351000D01*
X364000D01*
X355000Y-342000D01*
X310000Y-342000D01*
X304960Y-336961D01*
X304961Y-233000D01*
Y-229961D01*
X295000Y-220000D01*
X275000D01*
X270000Y-215000D01*
X270000Y-188000D01*
X275000Y-183000D01*
X345000Y-183000D01*
X349941Y-187942D01*
D02*
G37*
%LPC*%
G36*
X1003000Y-23157D02*
X1001147Y-23526D01*
X999575Y-24575D01*
X998526Y-26147D01*
X998157Y-28000D01*
X998526Y-29853D01*
X999575Y-31425D01*
X1001147Y-32474D01*
X1003000Y-32843D01*
X1004853Y-32474D01*
X1006425Y-31425D01*
X1007474Y-29853D01*
X1007843Y-28000D01*
X1007474Y-26147D01*
X1006425Y-24575D01*
X1004853Y-23526D01*
X1003000Y-23157D01*
D02*
G37*
G36*
X770000Y-350157D02*
X768147Y-350526D01*
X766575Y-351575D01*
X765526Y-353147D01*
X765157Y-355000D01*
X765526Y-356853D01*
X766575Y-358424D01*
Y-358576D01*
X765526Y-360147D01*
X765157Y-362000D01*
X765526Y-363853D01*
X766575Y-365425D01*
X768147Y-366474D01*
X770000Y-366843D01*
X771853Y-366474D01*
X773425Y-365425D01*
X774474Y-363853D01*
X774843Y-362000D01*
X774474Y-360147D01*
X773425Y-358576D01*
Y-358424D01*
X774474Y-356853D01*
X774843Y-355000D01*
X774474Y-353147D01*
X773425Y-351575D01*
X771853Y-350526D01*
X770000Y-350157D01*
D02*
G37*
G36*
X1089000Y-36157D02*
X1087147Y-36526D01*
X1085575Y-37575D01*
X1084425D01*
X1082853Y-36526D01*
X1081000Y-36157D01*
X1079147Y-36526D01*
X1077575Y-37575D01*
X1076526Y-39147D01*
X1076157Y-41000D01*
X1076526Y-42853D01*
X1077575Y-44425D01*
X1079147Y-45474D01*
X1081000Y-45843D01*
X1082853Y-45474D01*
X1084425Y-44425D01*
X1085575D01*
X1087147Y-45474D01*
X1089000Y-45843D01*
X1090853Y-45474D01*
X1092425Y-44425D01*
X1093474Y-42853D01*
X1093843Y-41000D01*
X1093474Y-39147D01*
X1092425Y-37575D01*
X1090853Y-36526D01*
X1089000Y-36157D01*
D02*
G37*
G36*
X1057000Y-27157D02*
X1055147Y-27526D01*
X1053575Y-28575D01*
X1052526Y-30147D01*
X1052157Y-32000D01*
X1052526Y-33853D01*
X1053575Y-35425D01*
X1055147Y-36474D01*
X1057000Y-36843D01*
X1058853Y-36474D01*
X1060424Y-35425D01*
X1061474Y-33853D01*
X1061843Y-32000D01*
X1061474Y-30147D01*
X1060424Y-28575D01*
X1058853Y-27526D01*
X1057000Y-27157D01*
D02*
G37*
G36*
X580000Y-13157D02*
X578147Y-13526D01*
X576576Y-14575D01*
X575526Y-16147D01*
X575157Y-18000D01*
X575526Y-19853D01*
X576576Y-21425D01*
X578147Y-22474D01*
X580000Y-22843D01*
X581853Y-22474D01*
X583425Y-21425D01*
X584474Y-19853D01*
X584843Y-18000D01*
X584474Y-16147D01*
X583425Y-14575D01*
X581853Y-13526D01*
X580000Y-13157D01*
D02*
G37*
G36*
X465000Y-10157D02*
X463147Y-10526D01*
X461576Y-11575D01*
X460526Y-13147D01*
X460157Y-15000D01*
X460526Y-16853D01*
X461576Y-18425D01*
X463147Y-19474D01*
X465000Y-19843D01*
X466853Y-19474D01*
X468425Y-18425D01*
X469474Y-16853D01*
X469843Y-15000D01*
X469474Y-13147D01*
X468425Y-11575D01*
X466853Y-10526D01*
X465000Y-10157D01*
D02*
G37*
G36*
X1107000Y-16157D02*
X1105147Y-16526D01*
X1103575Y-17576D01*
X1102526Y-19147D01*
X1102157Y-21000D01*
X1102526Y-22853D01*
X1103575Y-24425D01*
X1105147Y-25474D01*
X1107000Y-25843D01*
X1108853Y-25474D01*
X1110425Y-24425D01*
X1111474Y-22853D01*
X1111843Y-21000D01*
X1111474Y-19147D01*
X1110425Y-17576D01*
X1108853Y-16526D01*
X1107000Y-16157D01*
D02*
G37*
G36*
X1019000Y-14157D02*
X1017147Y-14526D01*
X1015575Y-15575D01*
X1014526Y-17147D01*
X1014157Y-19000D01*
X1014526Y-20853D01*
X1015575Y-22424D01*
X1017147Y-23474D01*
X1019000Y-23843D01*
X1020853Y-23474D01*
X1022424Y-22424D01*
X1023474Y-20853D01*
X1023843Y-19000D01*
X1023474Y-17147D01*
X1022424Y-15575D01*
X1020853Y-14526D01*
X1019000Y-14157D01*
D02*
G37*
G36*
X858600Y-6308D02*
X856600D01*
X852875Y-6675D01*
X849294Y-7761D01*
X845993Y-9526D01*
X843100Y-11900D01*
X840726Y-14793D01*
X838961Y-18094D01*
X837875Y-21675D01*
X837508Y-25400D01*
X837875Y-29125D01*
X838961Y-32706D01*
X840726Y-36007D01*
X843100Y-38900D01*
X845993Y-41274D01*
X849294Y-43039D01*
X852875Y-44125D01*
X856600Y-44492D01*
X858600D01*
X862325Y-44125D01*
X865906Y-43039D01*
X869207Y-41274D01*
X872100Y-38900D01*
X874474Y-36007D01*
X876239Y-32706D01*
X877325Y-29125D01*
X877692Y-25400D01*
X877325Y-21675D01*
X876239Y-18094D01*
X874474Y-14793D01*
X872100Y-11900D01*
X869207Y-9526D01*
X865906Y-7761D01*
X862325Y-6675D01*
X858600Y-6308D01*
D02*
G37*
G36*
X571000Y-64157D02*
X569147Y-64526D01*
X567575Y-65575D01*
X566424D01*
X564853Y-64526D01*
X563000Y-64157D01*
X561147Y-64526D01*
X559576Y-65575D01*
X558526Y-67147D01*
X558157Y-69000D01*
X558526Y-70853D01*
X559576Y-72425D01*
X561147Y-73474D01*
X563000Y-73843D01*
X564853Y-73474D01*
X566424Y-72425D01*
X567575D01*
X569147Y-73474D01*
X571000Y-73843D01*
X572853Y-73474D01*
X574425Y-72425D01*
X575474Y-70853D01*
X575843Y-69000D01*
X575474Y-67147D01*
X574425Y-65575D01*
X572853Y-64526D01*
X571000Y-64157D01*
D02*
G37*
G36*
X1195000Y-42157D02*
X1193147Y-42526D01*
X1191575Y-43576D01*
X1190526Y-45147D01*
X1190157Y-47000D01*
X1190526Y-48853D01*
X1191575Y-50425D01*
X1193147Y-51474D01*
X1195000Y-51843D01*
X1196853Y-51474D01*
X1198425Y-50425D01*
X1199474Y-48853D01*
X1199843Y-47000D01*
X1199474Y-45147D01*
X1198425Y-43576D01*
X1196853Y-42526D01*
X1195000Y-42157D01*
D02*
G37*
G36*
X378600Y-6308D02*
X376600D01*
X372875Y-6675D01*
X369294Y-7761D01*
X365993Y-9526D01*
X363100Y-11900D01*
X360726Y-14793D01*
X358961Y-18094D01*
X357875Y-21675D01*
X357508Y-25400D01*
X357875Y-29125D01*
X358961Y-32706D01*
X360726Y-36007D01*
X363100Y-38900D01*
X365993Y-41274D01*
X369294Y-43039D01*
X372875Y-44125D01*
X376600Y-44492D01*
X378600D01*
X382325Y-44125D01*
X385906Y-43039D01*
X389207Y-41274D01*
X392100Y-38900D01*
X394474Y-36007D01*
X396239Y-32706D01*
X397325Y-29125D01*
X397692Y-25400D01*
X397325Y-21675D01*
X396239Y-18094D01*
X394474Y-14793D01*
X392100Y-11900D01*
X389207Y-9526D01*
X385906Y-7761D01*
X382325Y-6675D01*
X378600Y-6308D01*
D02*
G37*
G36*
X1051000Y-64157D02*
X1049147Y-64526D01*
X1047576Y-65575D01*
X1046424D01*
X1044853Y-64526D01*
X1043000Y-64157D01*
X1041147Y-64526D01*
X1039575Y-65575D01*
X1038526Y-67147D01*
X1038157Y-69000D01*
X1038526Y-70853D01*
X1039575Y-72425D01*
X1041147Y-73474D01*
X1043000Y-73843D01*
X1044853Y-73474D01*
X1046424Y-72425D01*
X1047576D01*
X1049147Y-73474D01*
X1051000Y-73843D01*
X1052853Y-73474D01*
X1054425Y-72425D01*
X1055474Y-70853D01*
X1055843Y-69000D01*
X1055474Y-67147D01*
X1054425Y-65575D01*
X1052853Y-64526D01*
X1051000Y-64157D01*
D02*
G37*
G36*
X609000Y-36157D02*
X607147Y-36526D01*
X605575Y-37575D01*
X604425D01*
X602853Y-36526D01*
X601000Y-36157D01*
X599147Y-36526D01*
X597575Y-37575D01*
X596526Y-39147D01*
X596157Y-41000D01*
X596526Y-42853D01*
X597575Y-44425D01*
X599147Y-45474D01*
X601000Y-45843D01*
X602853Y-45474D01*
X604425Y-44425D01*
X605575D01*
X607147Y-45474D01*
X609000Y-45843D01*
X610853Y-45474D01*
X612425Y-44425D01*
X613474Y-42853D01*
X613843Y-41000D01*
X613474Y-39147D01*
X612425Y-37575D01*
X610853Y-36526D01*
X609000Y-36157D01*
D02*
G37*
G36*
X683400Y-9323D02*
X681400D01*
X678263Y-9632D01*
X675247Y-10546D01*
X672468Y-12032D01*
X670032Y-14031D01*
X668032Y-16468D01*
X666546Y-19247D01*
X665631Y-22264D01*
X665323Y-25400D01*
X665631Y-28537D01*
X666546Y-31553D01*
X668032Y-34332D01*
X670032Y-36769D01*
X672468Y-38768D01*
X675247Y-40254D01*
X678263Y-41168D01*
X681400Y-41477D01*
X683400D01*
X686536Y-41168D01*
X689553Y-40254D01*
X692332Y-38768D01*
X694769Y-36769D01*
X696768Y-34332D01*
X698254Y-31553D01*
X699168Y-28537D01*
X699477Y-25400D01*
X699168Y-22264D01*
X698254Y-19247D01*
X696768Y-16468D01*
X694769Y-14031D01*
X692332Y-12032D01*
X689553Y-10546D01*
X686536Y-9632D01*
X683400Y-9323D01*
D02*
G37*
G36*
X1163400D02*
X1161400D01*
X1158263Y-9632D01*
X1155247Y-10546D01*
X1152468Y-12032D01*
X1150032Y-14031D01*
X1148032Y-16468D01*
X1146546Y-19247D01*
X1145631Y-22264D01*
X1145323Y-25400D01*
X1145631Y-28537D01*
X1146546Y-31553D01*
X1148032Y-34332D01*
X1150032Y-36769D01*
X1152468Y-38768D01*
X1155247Y-40254D01*
X1158263Y-41168D01*
X1161400Y-41477D01*
X1163400D01*
X1166537Y-41168D01*
X1169553Y-40254D01*
X1172332Y-38768D01*
X1174769Y-36769D01*
X1176768Y-34332D01*
X1178254Y-31553D01*
X1179168Y-28537D01*
X1179477Y-25400D01*
X1179168Y-22264D01*
X1178254Y-19247D01*
X1176768Y-16468D01*
X1174769Y-14031D01*
X1172332Y-12032D01*
X1169553Y-10546D01*
X1166537Y-9632D01*
X1163400Y-9323D01*
D02*
G37*
G36*
X944000Y-10157D02*
X942147Y-10526D01*
X940575Y-11575D01*
X939526Y-13147D01*
X939157Y-15000D01*
X939526Y-16853D01*
X940575Y-18425D01*
X942147Y-19474D01*
X944000Y-19843D01*
X945853Y-19474D01*
X947424Y-18425D01*
X948474Y-16853D01*
X948843Y-15000D01*
X948474Y-13147D01*
X947424Y-11575D01*
X945853Y-10526D01*
X944000Y-10157D01*
D02*
G37*
G36*
X945000Y17843D02*
X943147Y17474D01*
X941575Y16425D01*
X940526Y14853D01*
X940157Y13000D01*
X940526Y11147D01*
X941575Y9575D01*
X943147Y8526D01*
X945000Y8157D01*
X946853Y8526D01*
X948425Y9575D01*
X949474Y11147D01*
X949843Y13000D01*
X949474Y14853D01*
X948425Y16425D01*
X946853Y17474D01*
X945000Y17843D01*
D02*
G37*
G36*
X1014000Y15843D02*
X1012147Y15474D01*
X1010575Y14425D01*
X1009526Y12853D01*
X1009157Y11000D01*
X1009445Y9553D01*
X1009340Y9361D01*
X1008639Y8661D01*
X1008447Y8555D01*
X1007000Y8843D01*
X1005147Y8474D01*
X1003575Y7424D01*
X1002526Y5853D01*
X1002157Y4000D01*
X1002526Y2147D01*
X1003575Y575D01*
X1005147Y-474D01*
X1007000Y-843D01*
X1008853Y-474D01*
X1010424Y575D01*
X1011474Y2147D01*
X1011843Y4000D01*
X1011555Y5447D01*
X1011661Y5639D01*
X1012361Y6339D01*
X1012553Y6445D01*
X1014000Y6157D01*
X1015853Y6526D01*
X1017425Y7575D01*
X1018474Y9147D01*
X1018843Y11000D01*
X1018474Y12853D01*
X1017425Y14425D01*
X1015853Y15474D01*
X1014000Y15843D01*
D02*
G37*
G36*
X378600Y44492D02*
X376600D01*
X372875Y44125D01*
X369294Y43039D01*
X365993Y41274D01*
X363100Y38900D01*
X360726Y36007D01*
X358961Y32706D01*
X357875Y29125D01*
X357508Y25400D01*
X357875Y21675D01*
X358961Y18094D01*
X360726Y14793D01*
X363100Y11900D01*
X365993Y9526D01*
X369294Y7761D01*
X372875Y6675D01*
X376600Y6308D01*
X378600D01*
X382325Y6675D01*
X385906Y7761D01*
X389207Y9526D01*
X392100Y11900D01*
X394474Y14793D01*
X396239Y18094D01*
X397325Y21675D01*
X397692Y25400D01*
X397325Y29125D01*
X396239Y32706D01*
X394474Y36007D01*
X392100Y38900D01*
X389207Y41274D01*
X385906Y43039D01*
X382325Y44125D01*
X378600Y44492D01*
D02*
G37*
G36*
X858600D02*
X856600D01*
X852875Y44125D01*
X849294Y43039D01*
X845993Y41274D01*
X843100Y38900D01*
X840726Y36007D01*
X838961Y32706D01*
X837875Y29125D01*
X837508Y25400D01*
X837875Y21675D01*
X838961Y18094D01*
X840726Y14793D01*
X843100Y11900D01*
X845993Y9526D01*
X849294Y7761D01*
X852875Y6675D01*
X856600Y6308D01*
X858600D01*
X862325Y6675D01*
X865906Y7761D01*
X869207Y9526D01*
X872100Y11900D01*
X874474Y14793D01*
X876239Y18094D01*
X877325Y21675D01*
X877692Y25400D01*
X877325Y29125D01*
X876239Y32706D01*
X874474Y36007D01*
X872100Y38900D01*
X869207Y41274D01*
X865906Y43039D01*
X862325Y44125D01*
X858600Y44492D01*
D02*
G37*
G36*
X683400Y41477D02*
X681400D01*
X678263Y41168D01*
X675247Y40254D01*
X672468Y38768D01*
X670032Y36769D01*
X668032Y34332D01*
X666546Y31553D01*
X665631Y28537D01*
X665323Y25400D01*
X665631Y22264D01*
X666546Y19247D01*
X668032Y16468D01*
X670032Y14031D01*
X672468Y12032D01*
X675247Y10546D01*
X678263Y9632D01*
X681400Y9323D01*
X683400D01*
X686536Y9632D01*
X689553Y10546D01*
X692332Y12032D01*
X694769Y14031D01*
X696768Y16468D01*
X698254Y19247D01*
X699168Y22264D01*
X699477Y25400D01*
X699168Y28537D01*
X698254Y31553D01*
X696768Y34332D01*
X694769Y36769D01*
X692332Y38768D01*
X689553Y40254D01*
X686536Y41168D01*
X683400Y41477D01*
D02*
G37*
G36*
X1109000Y22843D02*
X1107147Y22474D01*
X1105575Y21425D01*
X1104526Y19853D01*
X1104157Y18000D01*
X1104526Y16147D01*
X1105575Y14575D01*
X1107147Y13526D01*
X1109000Y13157D01*
X1110853Y13526D01*
X1112424Y14575D01*
X1113474Y16147D01*
X1113843Y18000D01*
X1113474Y19853D01*
X1112424Y21425D01*
X1110853Y22474D01*
X1109000Y22843D01*
D02*
G37*
G36*
X435000Y24843D02*
X433147Y24474D01*
X431575Y23425D01*
X430526Y21853D01*
X430157Y20000D01*
X430526Y18147D01*
X431575Y16575D01*
X433147Y15526D01*
X435000Y15157D01*
X436853Y15526D01*
X438424Y16575D01*
X439474Y18147D01*
X439843Y20000D01*
X439474Y21853D01*
X438424Y23425D01*
X436853Y24474D01*
X435000Y24843D01*
D02*
G37*
G36*
X1163400Y41477D02*
X1161400D01*
X1158263Y41168D01*
X1155247Y40254D01*
X1152468Y38768D01*
X1150032Y36769D01*
X1148032Y34332D01*
X1146546Y31553D01*
X1145631Y28537D01*
X1145323Y25400D01*
X1145631Y22264D01*
X1146546Y19247D01*
X1148032Y16468D01*
X1150032Y14031D01*
X1152468Y12032D01*
X1155247Y10546D01*
X1158263Y9632D01*
X1161400Y9323D01*
X1163400D01*
X1166537Y9632D01*
X1169553Y10546D01*
X1172332Y12032D01*
X1174769Y14031D01*
X1176768Y16468D01*
X1178254Y19247D01*
X1179168Y22264D01*
X1179477Y25400D01*
X1179168Y28537D01*
X1178254Y31553D01*
X1176768Y34332D01*
X1174769Y36769D01*
X1172332Y38768D01*
X1169553Y40254D01*
X1166537Y41168D01*
X1163400Y41477D01*
D02*
G37*
G36*
X582000Y13843D02*
X580147Y13474D01*
X578575Y12425D01*
X578264Y11958D01*
X576736D01*
X576425Y12425D01*
X574853Y13474D01*
X573000Y13843D01*
X571147Y13474D01*
X569575Y12425D01*
X568526Y10853D01*
X568157Y9000D01*
X568526Y7147D01*
X569575Y5576D01*
X571147Y4526D01*
X573000Y4157D01*
X574853Y4526D01*
X576425Y5576D01*
X576736Y6042D01*
X578264D01*
X578575Y5576D01*
X580147Y4526D01*
X582000Y4157D01*
X583853Y4526D01*
X585425Y5576D01*
X586474Y7147D01*
X586843Y9000D01*
X586474Y10853D01*
X585425Y12425D01*
X583853Y13474D01*
X582000Y13843D01*
D02*
G37*
G36*
X430000Y-157D02*
X428147Y-526D01*
X426575Y-1575D01*
X425526Y-3147D01*
X425157Y-5000D01*
X425526Y-6853D01*
X426575Y-8425D01*
X428147Y-9474D01*
X430000Y-9843D01*
X431853Y-9474D01*
X433425Y-8425D01*
X434474Y-6853D01*
X434843Y-5000D01*
X434474Y-3147D01*
X433425Y-1575D01*
X431853Y-526D01*
X430000Y-157D01*
D02*
G37*
G36*
X965000D02*
X963147Y-526D01*
X961575Y-1575D01*
X960526Y-3147D01*
X960157Y-5000D01*
X960526Y-6853D01*
X961575Y-8425D01*
X963147Y-9474D01*
X965000Y-9843D01*
X966853Y-9474D01*
X968425Y-8425D01*
X969474Y-6853D01*
X969843Y-5000D01*
X969474Y-3147D01*
X968425Y-1575D01*
X966853Y-526D01*
X965000Y-157D01*
D02*
G37*
G36*
X518000Y-5157D02*
X516147Y-5526D01*
X514576Y-6575D01*
X513526Y-8147D01*
X513157Y-10000D01*
X513526Y-11853D01*
X514576Y-13425D01*
X516147Y-14474D01*
X518000Y-14843D01*
X519853Y-14474D01*
X521425Y-13425D01*
X522474Y-11853D01*
X522843Y-10000D01*
X522474Y-8147D01*
X521425Y-6575D01*
X519853Y-5526D01*
X518000Y-5157D01*
D02*
G37*
G36*
X1200000Y12104D02*
X1196867Y11691D01*
X1193948Y10482D01*
X1191441Y8558D01*
X1189518Y6052D01*
X1188309Y3133D01*
X1187896Y0D01*
X1188309Y-3133D01*
X1189518Y-6052D01*
X1191441Y-8558D01*
X1193948Y-10482D01*
X1196867Y-11691D01*
X1200000Y-12104D01*
X1203133Y-11691D01*
X1206052Y-10482D01*
X1208559Y-8558D01*
X1210482Y-6052D01*
X1211691Y-3133D01*
X1212104Y0D01*
X1211691Y3133D01*
X1210482Y6052D01*
X1208559Y8558D01*
X1206052Y10482D01*
X1203133Y11691D01*
X1200000Y12104D01*
D02*
G37*
G36*
X985000Y-157D02*
X983147Y-526D01*
X981575Y-1575D01*
X980526Y-3147D01*
X980157Y-5000D01*
X980526Y-6853D01*
X981575Y-8425D01*
X983147Y-9474D01*
X985000Y-9843D01*
X986853Y-9474D01*
X988425Y-8425D01*
X989474Y-6853D01*
X989843Y-5000D01*
X989474Y-3147D01*
X988425Y-1575D01*
X986853Y-526D01*
X985000Y-157D01*
D02*
G37*
G36*
X1031000Y9843D02*
X1029147Y9474D01*
X1027575Y8425D01*
X1026526Y6853D01*
X1026157Y5000D01*
X1026526Y3147D01*
X1027575Y1575D01*
X1029147Y526D01*
X1031000Y157D01*
X1032853Y526D01*
X1034425Y1575D01*
X1035474Y3147D01*
X1035843Y5000D01*
X1035474Y6853D01*
X1034425Y8425D01*
X1032853Y9474D01*
X1031000Y9843D01*
D02*
G37*
G36*
X1097000D02*
X1095147Y9474D01*
X1093575Y8425D01*
X1092526Y6853D01*
X1092157Y5000D01*
X1092526Y3147D01*
X1093575Y1575D01*
X1095147Y526D01*
X1097000Y157D01*
X1098853Y526D01*
X1100424Y1575D01*
X1101474Y3147D01*
X1101843Y5000D01*
X1101474Y6853D01*
X1100424Y8425D01*
X1098853Y9474D01*
X1097000Y9843D01*
D02*
G37*
G36*
X495000Y-5157D02*
X493147Y-5526D01*
X491575Y-6575D01*
X490706Y-7877D01*
X490239Y-7979D01*
X489761D01*
X489294Y-7877D01*
X488425Y-6575D01*
X486853Y-5526D01*
X485000Y-5157D01*
X483147Y-5526D01*
X481575Y-6575D01*
X480526Y-8147D01*
X480157Y-10000D01*
X480526Y-11853D01*
X481575Y-13425D01*
X483147Y-14474D01*
X485000Y-14843D01*
X486853Y-14474D01*
X488425Y-13425D01*
X489294Y-12123D01*
X489761Y-12021D01*
X490239D01*
X490706Y-12123D01*
X491575Y-13425D01*
X493147Y-14474D01*
X495000Y-14843D01*
X496853Y-14474D01*
X498425Y-13425D01*
X499474Y-11853D01*
X499843Y-10000D01*
X499474Y-8147D01*
X498425Y-6575D01*
X496853Y-5526D01*
X495000Y-5157D01*
D02*
G37*
G36*
X1089000Y1843D02*
X1087147Y1474D01*
X1085575Y425D01*
X1084526Y-1147D01*
X1084157Y-3000D01*
X1084526Y-4853D01*
X1085575Y-6424D01*
X1087147Y-7474D01*
X1089000Y-7843D01*
X1090853Y-7474D01*
X1092425Y-6424D01*
X1093474Y-4853D01*
X1093843Y-3000D01*
X1093474Y-1147D01*
X1092425Y425D01*
X1090853Y1474D01*
X1089000Y1843D01*
D02*
G37*
G36*
X1004000Y-71922D02*
X1001650Y-72232D01*
X999461Y-73138D01*
X997581Y-74581D01*
X996139Y-76461D01*
X995232Y-78650D01*
X994922Y-81000D01*
X995232Y-83350D01*
X996139Y-85539D01*
X997581Y-87419D01*
X999461Y-88861D01*
X1001650Y-89768D01*
X1004000Y-90078D01*
X1006349Y-89768D01*
X1008539Y-88861D01*
X1010419Y-87419D01*
X1011861Y-85539D01*
X1012768Y-83350D01*
X1013078Y-81000D01*
X1012768Y-78650D01*
X1011861Y-76461D01*
X1010419Y-74581D01*
X1008539Y-73138D01*
X1006349Y-72232D01*
X1004000Y-71922D01*
D02*
G37*
G36*
X1074000Y-237157D02*
X1072147Y-237526D01*
X1070575Y-238575D01*
X1069526Y-240147D01*
X1069157Y-242000D01*
X1069526Y-243853D01*
X1070575Y-245425D01*
X1072147Y-246474D01*
X1074000Y-246843D01*
X1075853Y-246474D01*
X1077425Y-245425D01*
X1078474Y-243853D01*
X1078843Y-242000D01*
X1078474Y-240147D01*
X1077425Y-238575D01*
X1075853Y-237526D01*
X1074000Y-237157D01*
D02*
G37*
G36*
X770000Y-228157D02*
X768147Y-228526D01*
X766575Y-229575D01*
X765526Y-231147D01*
X765157Y-233000D01*
X765526Y-234853D01*
X766575Y-236425D01*
Y-236576D01*
X765526Y-238147D01*
X765157Y-240000D01*
X765526Y-241853D01*
X766575Y-243425D01*
X768147Y-244474D01*
X770000Y-244843D01*
X771853Y-244474D01*
X773425Y-243425D01*
X774474Y-241853D01*
X774843Y-240000D01*
X774474Y-238147D01*
X773425Y-236576D01*
Y-236425D01*
X774474Y-234853D01*
X774843Y-233000D01*
X774474Y-231147D01*
X773425Y-229575D01*
X771853Y-228526D01*
X770000Y-228157D01*
D02*
G37*
G36*
X618000Y-240157D02*
X616147Y-240526D01*
X614576Y-241575D01*
X613526Y-243147D01*
X613157Y-245000D01*
X613526Y-246853D01*
X614576Y-248424D01*
X616147Y-249474D01*
X618000Y-249843D01*
X619853Y-249474D01*
X621425Y-248424D01*
X622474Y-246853D01*
X622843Y-245000D01*
X622474Y-243147D01*
X621425Y-241575D01*
X619853Y-240526D01*
X618000Y-240157D01*
D02*
G37*
G36*
X1115000Y-312157D02*
X1113147Y-312526D01*
X1111575Y-313575D01*
X1110526Y-315147D01*
X1110157Y-317000D01*
X1110526Y-318853D01*
X1111575Y-320425D01*
X1113147Y-321474D01*
X1115000Y-321843D01*
X1116853Y-321474D01*
X1118425Y-320425D01*
X1119474Y-318853D01*
X1119843Y-317000D01*
X1119474Y-315147D01*
X1118425Y-313575D01*
X1116853Y-312526D01*
X1115000Y-312157D01*
D02*
G37*
G36*
X709000Y-168000D02*
Y-220000D01*
X755000Y-220000D01*
Y-205000D01*
Y-185003D01*
Y-168000D01*
X709000Y-168000D01*
D02*
G37*
G36*
X1089000Y-322157D02*
X1087147Y-322526D01*
X1085575Y-323576D01*
X1084526Y-325147D01*
X1084157Y-327000D01*
X1084526Y-328853D01*
X1085575Y-330425D01*
X1087147Y-331474D01*
X1089000Y-331843D01*
X1090853Y-331474D01*
X1092425Y-330425D01*
X1093474Y-328853D01*
X1093843Y-327000D01*
X1093474Y-325147D01*
X1092425Y-323576D01*
X1090853Y-322526D01*
X1089000Y-322157D01*
D02*
G37*
G36*
X1212000Y-229157D02*
X1210147Y-229526D01*
X1208575Y-230575D01*
X1207526Y-232147D01*
X1207157Y-234000D01*
X1207526Y-235853D01*
X1208575Y-237425D01*
X1210147Y-238474D01*
X1212000Y-238843D01*
X1213853Y-238474D01*
X1215424Y-237425D01*
X1216474Y-235853D01*
X1216843Y-234000D01*
X1216474Y-232147D01*
X1215424Y-230575D01*
X1213853Y-229526D01*
X1212000Y-229157D01*
D02*
G37*
G36*
X1168000Y-212907D02*
X1166147Y-213276D01*
X1164575Y-214326D01*
X1163526Y-215897D01*
X1163157Y-217750D01*
X1163526Y-219603D01*
X1164575Y-221175D01*
Y-222325D01*
X1163526Y-223897D01*
X1163157Y-225750D01*
X1163526Y-227603D01*
X1164575Y-229174D01*
X1166147Y-230224D01*
X1168000Y-230593D01*
X1169853Y-230224D01*
X1171424Y-229174D01*
X1172474Y-227603D01*
X1172843Y-225750D01*
X1172474Y-223897D01*
X1171424Y-222325D01*
Y-221175D01*
X1172474Y-219603D01*
X1172843Y-217750D01*
X1172474Y-215897D01*
X1171424Y-214326D01*
X1169853Y-213276D01*
X1168000Y-212907D01*
D02*
G37*
G36*
X1138000Y-312157D02*
X1136147Y-312526D01*
X1134576Y-313575D01*
X1133526Y-315147D01*
X1133157Y-317000D01*
X1133526Y-318853D01*
X1134576Y-320425D01*
X1136147Y-321474D01*
X1138000Y-321843D01*
X1139853Y-321474D01*
X1141425Y-320425D01*
X1142474Y-318853D01*
X1142843Y-317000D01*
X1142474Y-315147D01*
X1141425Y-313575D01*
X1139853Y-312526D01*
X1138000Y-312157D01*
D02*
G37*
G36*
X1176000Y-263157D02*
X1174147Y-263526D01*
X1172576Y-264575D01*
X1171526Y-266147D01*
X1171157Y-268000D01*
X1171526Y-269853D01*
X1172576Y-271425D01*
Y-272575D01*
X1171526Y-274147D01*
X1171157Y-276000D01*
X1171526Y-277853D01*
X1172576Y-279425D01*
X1174147Y-280474D01*
X1176000Y-280843D01*
X1177853Y-280474D01*
X1179425Y-279425D01*
X1180474Y-277853D01*
X1180843Y-276000D01*
X1180474Y-274147D01*
X1179425Y-272575D01*
Y-271425D01*
X1180474Y-269853D01*
X1180843Y-268000D01*
X1180474Y-266147D01*
X1179425Y-264575D01*
X1177853Y-263526D01*
X1176000Y-263157D01*
D02*
G37*
G36*
X1198000Y-244157D02*
X1196147Y-244526D01*
X1194575Y-245576D01*
X1193526Y-247147D01*
X1193157Y-249000D01*
X1193526Y-250853D01*
X1194575Y-252425D01*
Y-252575D01*
X1193526Y-254147D01*
X1193157Y-256000D01*
X1193526Y-257853D01*
X1194575Y-259425D01*
X1196147Y-260474D01*
X1198000Y-260843D01*
X1199853Y-260474D01*
X1201424Y-259425D01*
X1202474Y-257853D01*
X1202843Y-256000D01*
X1202474Y-254147D01*
X1201424Y-252575D01*
Y-252425D01*
X1202474Y-250853D01*
X1202843Y-249000D01*
X1202474Y-247147D01*
X1201424Y-245576D01*
X1199853Y-244526D01*
X1198000Y-244157D01*
D02*
G37*
G36*
X1157000Y-278157D02*
X1155147Y-278526D01*
X1153575Y-279575D01*
X1152526Y-281147D01*
X1152157Y-283000D01*
X1152526Y-284853D01*
X1153575Y-286425D01*
Y-287575D01*
X1152526Y-289147D01*
X1152157Y-291000D01*
X1152526Y-292853D01*
X1153575Y-294425D01*
X1155147Y-295474D01*
X1157000Y-295843D01*
X1158853Y-295474D01*
X1160425Y-294425D01*
X1161474Y-292853D01*
X1161843Y-291000D01*
X1161474Y-289147D01*
X1160425Y-287575D01*
Y-286425D01*
X1161474Y-284853D01*
X1161843Y-283000D01*
X1161474Y-281147D01*
X1160425Y-279575D01*
X1158853Y-278526D01*
X1157000Y-278157D01*
D02*
G37*
G36*
X65000Y-274157D02*
X63147Y-274526D01*
X61575Y-275575D01*
X60526Y-277147D01*
X60157Y-279000D01*
X60526Y-280853D01*
X61575Y-282425D01*
X63147Y-283474D01*
X65000Y-283843D01*
X66853Y-283474D01*
X68425Y-282425D01*
X69474Y-280853D01*
X69843Y-279000D01*
X69474Y-277147D01*
X68425Y-275575D01*
X66853Y-274526D01*
X65000Y-274157D01*
D02*
G37*
G36*
X1181000Y-234157D02*
X1179147Y-234526D01*
X1177575Y-235575D01*
X1176526Y-237147D01*
X1176157Y-239000D01*
X1176526Y-240853D01*
X1177575Y-242425D01*
Y-243575D01*
X1176526Y-245147D01*
X1176157Y-247000D01*
X1176526Y-248853D01*
X1177575Y-250424D01*
X1179147Y-251474D01*
X1181000Y-251843D01*
X1182853Y-251474D01*
X1184425Y-250424D01*
X1185474Y-248853D01*
X1185843Y-247000D01*
X1185474Y-245147D01*
X1184425Y-243575D01*
Y-242425D01*
X1185474Y-240853D01*
X1185843Y-239000D01*
X1185474Y-237147D01*
X1184425Y-235575D01*
X1182853Y-234526D01*
X1181000Y-234157D01*
D02*
G37*
G36*
X594000Y-240157D02*
X592147Y-240526D01*
X590575Y-241575D01*
X589526Y-243147D01*
X589157Y-245000D01*
X589526Y-246853D01*
X590575Y-248424D01*
X592147Y-249474D01*
X594000Y-249843D01*
X595853Y-249474D01*
X597425Y-248424D01*
X598474Y-246853D01*
X598843Y-245000D01*
X598474Y-243147D01*
X597425Y-241575D01*
X595853Y-240526D01*
X594000Y-240157D01*
D02*
G37*
G36*
X1150000Y-312157D02*
X1148147Y-312526D01*
X1146575Y-313575D01*
X1145526Y-315147D01*
X1145157Y-317000D01*
X1145526Y-318853D01*
X1146575Y-320425D01*
X1148147Y-321474D01*
X1150000Y-321843D01*
X1151853Y-321474D01*
X1153425Y-320425D01*
X1154474Y-318853D01*
X1154843Y-317000D01*
X1154474Y-315147D01*
X1153425Y-313575D01*
X1151853Y-312526D01*
X1150000Y-312157D01*
D02*
G37*
G36*
X1070000Y-255157D02*
X1068147Y-255526D01*
X1066575Y-256575D01*
X1065424D01*
X1063853Y-255526D01*
X1062000Y-255157D01*
X1060147Y-255526D01*
X1058576Y-256575D01*
X1057526Y-258147D01*
X1057157Y-260000D01*
X1057526Y-261853D01*
X1058576Y-263424D01*
X1060147Y-264474D01*
X1062000Y-264843D01*
X1063853Y-264474D01*
X1065424Y-263424D01*
X1066575D01*
X1068147Y-264474D01*
X1070000Y-264843D01*
X1071853Y-264474D01*
X1073425Y-263424D01*
X1074474Y-261853D01*
X1074843Y-260000D01*
X1074474Y-258147D01*
X1073425Y-256575D01*
X1071853Y-255526D01*
X1070000Y-255157D01*
D02*
G37*
G36*
X594000Y-194157D02*
X592147Y-194526D01*
X590575Y-195576D01*
X589526Y-197147D01*
X589157Y-199000D01*
X589526Y-200853D01*
X590575Y-202425D01*
X592147Y-203474D01*
X594000Y-203843D01*
X595853Y-203474D01*
X597425Y-202425D01*
X598474Y-200853D01*
X598843Y-199000D01*
X598474Y-197147D01*
X597425Y-195576D01*
X595853Y-194526D01*
X594000Y-194157D01*
D02*
G37*
G36*
X378600Y-57108D02*
X376600D01*
X372875Y-57475D01*
X369294Y-58561D01*
X365993Y-60326D01*
X363100Y-62700D01*
X360726Y-65593D01*
X358961Y-68894D01*
X357875Y-72475D01*
X357508Y-76200D01*
X357875Y-79925D01*
X358961Y-83506D01*
X360726Y-86807D01*
X363100Y-89700D01*
X365993Y-92074D01*
X369294Y-93839D01*
X372875Y-94925D01*
X376600Y-95292D01*
X378600D01*
X382325Y-94925D01*
X385906Y-93839D01*
X389207Y-92074D01*
X392100Y-89700D01*
X394474Y-86807D01*
X396239Y-83506D01*
X397325Y-79925D01*
X397692Y-76200D01*
X397325Y-72475D01*
X396239Y-68894D01*
X394474Y-65593D01*
X392100Y-62700D01*
X389207Y-60326D01*
X385906Y-58561D01*
X382325Y-57475D01*
X378600Y-57108D01*
D02*
G37*
G36*
X1075000Y-345157D02*
X1073147Y-345526D01*
X1071575Y-346576D01*
X1070526Y-348147D01*
X1070157Y-350000D01*
X1070526Y-351853D01*
X1071575Y-353425D01*
X1073147Y-354474D01*
X1075000Y-354843D01*
X1076853Y-354474D01*
X1078425Y-353425D01*
X1079474Y-351853D01*
X1079843Y-350000D01*
X1079474Y-348147D01*
X1078425Y-346576D01*
X1076853Y-345526D01*
X1075000Y-345157D01*
D02*
G37*
G36*
X1163400Y-110923D02*
X1161400D01*
X1158263Y-111231D01*
X1155247Y-112146D01*
X1152468Y-113632D01*
X1150032Y-115632D01*
X1148032Y-118068D01*
X1146546Y-120847D01*
X1145631Y-123863D01*
X1145323Y-127000D01*
X1145631Y-130136D01*
X1146546Y-133153D01*
X1148032Y-135932D01*
X1150032Y-138369D01*
X1152468Y-140368D01*
X1155247Y-141854D01*
X1158263Y-142768D01*
X1161400Y-143077D01*
X1163400D01*
X1166537Y-142768D01*
X1169553Y-141854D01*
X1172332Y-140368D01*
X1174769Y-138369D01*
X1176768Y-135932D01*
X1178254Y-133153D01*
X1179168Y-130136D01*
X1179477Y-127000D01*
X1179168Y-123863D01*
X1178254Y-120847D01*
X1176768Y-118068D01*
X1174769Y-115632D01*
X1172332Y-113632D01*
X1169553Y-112146D01*
X1166537Y-111231D01*
X1163400Y-110923D01*
D02*
G37*
G36*
X1200000Y-77896D02*
X1196867Y-78309D01*
X1193948Y-79518D01*
X1191441Y-81441D01*
X1189518Y-83948D01*
X1188309Y-86867D01*
X1187896Y-90000D01*
X1188309Y-93133D01*
X1189518Y-96052D01*
X1191441Y-98559D01*
X1193948Y-100482D01*
X1196867Y-101691D01*
X1200000Y-102104D01*
X1203133Y-101691D01*
X1206052Y-100482D01*
X1208559Y-98559D01*
X1210482Y-96052D01*
X1211691Y-93133D01*
X1212104Y-90000D01*
X1211691Y-86867D01*
X1210482Y-83948D01*
X1208559Y-81441D01*
X1206052Y-79518D01*
X1203133Y-78309D01*
X1200000Y-77896D01*
D02*
G37*
G36*
X1163400Y-60123D02*
X1161400D01*
X1158263Y-60431D01*
X1155247Y-61346D01*
X1152468Y-62832D01*
X1150032Y-64832D01*
X1148032Y-67268D01*
X1146546Y-70047D01*
X1145631Y-73064D01*
X1145323Y-76200D01*
X1145631Y-79337D01*
X1146546Y-82353D01*
X1148032Y-85132D01*
X1150032Y-87569D01*
X1152468Y-89568D01*
X1155247Y-91054D01*
X1158263Y-91968D01*
X1161400Y-92277D01*
X1163400D01*
X1166537Y-91968D01*
X1169553Y-91054D01*
X1172332Y-89568D01*
X1174769Y-87569D01*
X1176768Y-85132D01*
X1178254Y-82353D01*
X1179168Y-79337D01*
X1179477Y-76200D01*
X1179168Y-73064D01*
X1178254Y-70047D01*
X1176768Y-67268D01*
X1174769Y-64832D01*
X1172332Y-62832D01*
X1169553Y-61346D01*
X1166537Y-60431D01*
X1163400Y-60123D01*
D02*
G37*
G36*
X524000Y-71922D02*
X521651Y-72232D01*
X519461Y-73138D01*
X517581Y-74581D01*
X516138Y-76461D01*
X515232Y-78650D01*
X514922Y-81000D01*
X515232Y-83350D01*
X516138Y-85539D01*
X517581Y-87419D01*
X519461Y-88861D01*
X521651Y-89768D01*
X524000Y-90078D01*
X526349Y-89768D01*
X528539Y-88861D01*
X530419Y-87419D01*
X531861Y-85539D01*
X532768Y-83350D01*
X533078Y-81000D01*
X532768Y-78650D01*
X531861Y-76461D01*
X530419Y-74581D01*
X528539Y-73138D01*
X526349Y-72232D01*
X524000Y-71922D01*
D02*
G37*
G36*
X858600Y-57108D02*
X856600D01*
X852875Y-57475D01*
X849294Y-58561D01*
X845993Y-60326D01*
X843100Y-62700D01*
X840726Y-65593D01*
X838961Y-68894D01*
X837875Y-72475D01*
X837508Y-76200D01*
X837875Y-79925D01*
X838961Y-83506D01*
X840726Y-86807D01*
X843100Y-89700D01*
X845993Y-92074D01*
X849294Y-93839D01*
X852875Y-94925D01*
X856600Y-95292D01*
X858600D01*
X862325Y-94925D01*
X865906Y-93839D01*
X869207Y-92074D01*
X872100Y-89700D01*
X874474Y-86807D01*
X876239Y-83506D01*
X877325Y-79925D01*
X877692Y-76200D01*
X877325Y-72475D01*
X876239Y-68894D01*
X874474Y-65593D01*
X872100Y-62700D01*
X869207Y-60326D01*
X865906Y-58561D01*
X862325Y-57475D01*
X858600Y-57108D01*
D02*
G37*
G36*
X683400Y-60123D02*
X681400D01*
X678263Y-60431D01*
X675247Y-61346D01*
X672468Y-62832D01*
X670032Y-64832D01*
X668032Y-67268D01*
X666546Y-70047D01*
X665631Y-73064D01*
X665323Y-76200D01*
X665631Y-79337D01*
X666546Y-82353D01*
X668032Y-85132D01*
X670032Y-87569D01*
X672468Y-89568D01*
X675247Y-91054D01*
X678263Y-91968D01*
X681400Y-92277D01*
X683400D01*
X686536Y-91968D01*
X689553Y-91054D01*
X692332Y-89568D01*
X694769Y-87569D01*
X696768Y-85132D01*
X698254Y-82353D01*
X699168Y-79337D01*
X699477Y-76200D01*
X699168Y-73064D01*
X698254Y-70047D01*
X696768Y-67268D01*
X694769Y-64832D01*
X692332Y-62832D01*
X689553Y-61346D01*
X686536Y-60431D01*
X683400Y-60123D01*
D02*
G37*
G36*
Y-110923D02*
X681400D01*
X678263Y-111231D01*
X675247Y-112146D01*
X672468Y-113632D01*
X670032Y-115632D01*
X668032Y-118068D01*
X666546Y-120847D01*
X665631Y-123863D01*
X665323Y-127000D01*
X665631Y-130136D01*
X666546Y-133153D01*
X668032Y-135932D01*
X670032Y-138369D01*
X672468Y-140368D01*
X675247Y-141854D01*
X678263Y-142768D01*
X681400Y-143077D01*
X683400D01*
X686536Y-142768D01*
X689553Y-141854D01*
X692332Y-140368D01*
X694769Y-138369D01*
X696768Y-135932D01*
X698254Y-133153D01*
X699168Y-130136D01*
X699477Y-127000D01*
X699168Y-123863D01*
X698254Y-120847D01*
X696768Y-118068D01*
X694769Y-115632D01*
X692332Y-113632D01*
X689553Y-112146D01*
X686536Y-111231D01*
X683400Y-110923D01*
D02*
G37*
G36*
Y-161723D02*
X681400D01*
X678263Y-162031D01*
X675247Y-162946D01*
X672468Y-164432D01*
X670032Y-166432D01*
X668032Y-168868D01*
X666546Y-171647D01*
X665631Y-174664D01*
X665323Y-177800D01*
X665631Y-180937D01*
X666546Y-183953D01*
X668032Y-186732D01*
X670032Y-189168D01*
X672468Y-191168D01*
X675247Y-192654D01*
X678263Y-193568D01*
X681400Y-193877D01*
X683400D01*
X686536Y-193568D01*
X689553Y-192654D01*
X692332Y-191168D01*
X694769Y-189168D01*
X696768Y-186732D01*
X698254Y-183953D01*
X699168Y-180937D01*
X699477Y-177800D01*
X699168Y-174664D01*
X698254Y-171647D01*
X696768Y-168868D01*
X694769Y-166432D01*
X692332Y-164432D01*
X689553Y-162946D01*
X686536Y-162031D01*
X683400Y-161723D01*
D02*
G37*
G36*
X1163400D02*
X1161400D01*
X1158263Y-162031D01*
X1155247Y-162946D01*
X1152468Y-164432D01*
X1150032Y-166432D01*
X1148032Y-168868D01*
X1146546Y-171647D01*
X1145631Y-174664D01*
X1145323Y-177800D01*
X1145631Y-180937D01*
X1146546Y-183953D01*
X1148032Y-186732D01*
X1150032Y-189168D01*
X1152468Y-191168D01*
X1155247Y-192654D01*
X1158263Y-193568D01*
X1161400Y-193877D01*
X1163400D01*
X1166537Y-193568D01*
X1169553Y-192654D01*
X1172332Y-191168D01*
X1174769Y-189168D01*
X1176768Y-186732D01*
X1178254Y-183953D01*
X1179168Y-180937D01*
X1179477Y-177800D01*
X1179168Y-174664D01*
X1178254Y-171647D01*
X1176768Y-168868D01*
X1174769Y-166432D01*
X1172332Y-164432D01*
X1169553Y-162946D01*
X1166537Y-162031D01*
X1163400Y-161723D01*
D02*
G37*
G36*
X1074000Y-194157D02*
X1072147Y-194526D01*
X1070575Y-195576D01*
X1069526Y-197147D01*
X1069157Y-199000D01*
X1069526Y-200853D01*
X1070575Y-202425D01*
X1072147Y-203474D01*
X1074000Y-203843D01*
X1075853Y-203474D01*
X1077425Y-202425D01*
X1078474Y-200853D01*
X1078843Y-199000D01*
X1078474Y-197147D01*
X1077425Y-195576D01*
X1075853Y-194526D01*
X1074000Y-194157D01*
D02*
G37*
G36*
X1200000Y-177896D02*
X1196867Y-178309D01*
X1193948Y-179518D01*
X1191441Y-181441D01*
X1189518Y-183948D01*
X1188309Y-186867D01*
X1187896Y-190000D01*
X1188309Y-193133D01*
X1189518Y-196052D01*
X1191441Y-198559D01*
X1193948Y-200482D01*
X1196867Y-201691D01*
X1200000Y-202104D01*
X1203133Y-201691D01*
X1206052Y-200482D01*
X1208559Y-198559D01*
X1210482Y-196052D01*
X1211691Y-193133D01*
X1212104Y-190000D01*
X1211691Y-186867D01*
X1210482Y-183948D01*
X1208559Y-181441D01*
X1206052Y-179518D01*
X1203133Y-178309D01*
X1200000Y-177896D01*
D02*
G37*
G36*
X1065000Y-159157D02*
X1063147Y-159526D01*
X1061575Y-160575D01*
X1060526Y-162147D01*
X1060157Y-164000D01*
X1060526Y-165853D01*
X1061575Y-167425D01*
X1063147Y-168474D01*
X1065000Y-168843D01*
X1066853Y-168474D01*
X1068425Y-167425D01*
X1069474Y-165853D01*
X1069843Y-164000D01*
X1069474Y-162147D01*
X1068425Y-160575D01*
X1066853Y-159526D01*
X1065000Y-159157D01*
D02*
G37*
G36*
X1195000Y-142157D02*
X1193147Y-142526D01*
X1191575Y-143575D01*
X1190526Y-145147D01*
X1190157Y-147000D01*
X1190526Y-148853D01*
X1191575Y-150425D01*
X1193147Y-151474D01*
X1195000Y-151843D01*
X1196853Y-151474D01*
X1198425Y-150425D01*
X1199474Y-148853D01*
X1199843Y-147000D01*
X1199474Y-145147D01*
X1198425Y-143575D01*
X1196853Y-142526D01*
X1195000Y-142157D01*
D02*
G37*
G36*
X1129000Y-336157D02*
X1127147Y-336526D01*
X1125575Y-337575D01*
X1124526Y-339147D01*
X1124157Y-341000D01*
X1124526Y-342853D01*
X1125575Y-344425D01*
X1127147Y-345474D01*
X1129000Y-345843D01*
X1130853Y-345474D01*
X1132425Y-344425D01*
X1133474Y-342853D01*
X1133843Y-341000D01*
X1133474Y-339147D01*
X1132425Y-337575D01*
X1130853Y-336526D01*
X1129000Y-336157D01*
D02*
G37*
G36*
X585000Y-159157D02*
X583147Y-159526D01*
X581575Y-160575D01*
X580526Y-162147D01*
X580157Y-164000D01*
X580526Y-165853D01*
X581575Y-167425D01*
X583147Y-168474D01*
X585000Y-168843D01*
X586853Y-168474D01*
X588425Y-167425D01*
X589474Y-165853D01*
X589843Y-164000D01*
X589474Y-162147D01*
X588425Y-160575D01*
X586853Y-159526D01*
X585000Y-159157D01*
D02*
G37*
G36*
X242000Y205843D02*
X240147Y205474D01*
X238575Y204425D01*
X237526Y202853D01*
X237157Y201000D01*
X237526Y199147D01*
X238575Y197575D01*
X240147Y196526D01*
X242000Y196157D01*
X243853Y196526D01*
X245425Y197575D01*
X246474Y199147D01*
X246843Y201000D01*
X246474Y202853D01*
X245425Y204425D01*
X243853Y205474D01*
X242000Y205843D01*
D02*
G37*
G36*
X268000D02*
X266147Y205474D01*
X264575Y204425D01*
X263526Y202853D01*
X263157Y201000D01*
X263526Y199147D01*
X264575Y197575D01*
X266147Y196526D01*
X268000Y196157D01*
X269853Y196526D01*
X271425Y197575D01*
X272474Y199147D01*
X272843Y201000D01*
X272474Y202853D01*
X271425Y204425D01*
X269853Y205474D01*
X268000Y205843D01*
D02*
G37*
G36*
X1163400Y193877D02*
X1161400D01*
X1158263Y193568D01*
X1155247Y192654D01*
X1152468Y191168D01*
X1150032Y189168D01*
X1148032Y186732D01*
X1146546Y183953D01*
X1145631Y180937D01*
X1145323Y177800D01*
X1145631Y174664D01*
X1146546Y171647D01*
X1148032Y168868D01*
X1150032Y166432D01*
X1152468Y164432D01*
X1155247Y162946D01*
X1158263Y162031D01*
X1161400Y161723D01*
X1163400D01*
X1166537Y162031D01*
X1169553Y162946D01*
X1172332Y164432D01*
X1174769Y166432D01*
X1176768Y168868D01*
X1178254Y171647D01*
X1179168Y174664D01*
X1179477Y177800D01*
X1179168Y180937D01*
X1178254Y183953D01*
X1176768Y186732D01*
X1174769Y189168D01*
X1172332Y191168D01*
X1169553Y192654D01*
X1166537Y193568D01*
X1163400Y193877D01*
D02*
G37*
G36*
X1200000Y202104D02*
X1196867Y201691D01*
X1193948Y200482D01*
X1191441Y198559D01*
X1189518Y196052D01*
X1188309Y193133D01*
X1187896Y190000D01*
X1188309Y186867D01*
X1189518Y183948D01*
X1191441Y181441D01*
X1193948Y179518D01*
X1196867Y178309D01*
X1200000Y177896D01*
X1203133Y178309D01*
X1206052Y179518D01*
X1208559Y181441D01*
X1210482Y183948D01*
X1211691Y186867D01*
X1212104Y190000D01*
X1211691Y193133D01*
X1210482Y196052D01*
X1208559Y198559D01*
X1206052Y200482D01*
X1203133Y201691D01*
X1200000Y202104D01*
D02*
G37*
G36*
X293000Y205843D02*
X291147Y205474D01*
X289575Y204425D01*
X288526Y202853D01*
X288157Y201000D01*
X288526Y199147D01*
X289575Y197575D01*
X291147Y196526D01*
X293000Y196157D01*
X294853Y196526D01*
X296425Y197575D01*
X297474Y199147D01*
X297843Y201000D01*
X297474Y202853D01*
X296425Y204425D01*
X294853Y205474D01*
X293000Y205843D01*
D02*
G37*
G36*
X1215000Y251843D02*
X1213147Y251474D01*
X1211575Y250424D01*
X1210526Y248853D01*
X1210157Y247000D01*
X1210526Y245147D01*
X1211575Y243575D01*
X1213147Y242526D01*
X1215000Y242157D01*
X1216853Y242526D01*
X1218425Y243575D01*
X1219474Y245147D01*
X1219843Y247000D01*
X1219474Y248853D01*
X1218425Y250424D01*
X1216853Y251474D01*
X1215000Y251843D01*
D02*
G37*
G36*
X201500Y257617D02*
X199159Y257152D01*
X197174Y255826D01*
X195848Y253841D01*
X195382Y251500D01*
X195848Y249159D01*
X197174Y247174D01*
X199159Y245848D01*
X201500Y245382D01*
X203841Y245848D01*
X205826Y247174D01*
X207152Y249159D01*
X207617Y251500D01*
X207152Y253841D01*
X205826Y255826D01*
X203841Y257152D01*
X201500Y257617D01*
D02*
G37*
G36*
X1168000Y208843D02*
X1166147Y208474D01*
X1164575Y207425D01*
X1163526Y205853D01*
X1163157Y204000D01*
X1163526Y202147D01*
X1164575Y200575D01*
X1166147Y199526D01*
X1168000Y199157D01*
X1169853Y199526D01*
X1171425Y200575D01*
X1172474Y202147D01*
X1172843Y204000D01*
X1172474Y205853D01*
X1171425Y207425D01*
X1169853Y208474D01*
X1168000Y208843D01*
D02*
G37*
G36*
X770000Y244843D02*
X768147Y244474D01*
X766575Y243425D01*
X765526Y241853D01*
X765157Y240000D01*
X765526Y238147D01*
X766575Y236576D01*
Y236425D01*
X765526Y234853D01*
X765157Y233000D01*
X765526Y231147D01*
X766575Y229575D01*
X768147Y228526D01*
X770000Y228157D01*
X771853Y228526D01*
X773425Y229575D01*
X774474Y231147D01*
X774843Y233000D01*
X774474Y234853D01*
X773425Y236425D01*
Y236576D01*
X774474Y238147D01*
X774843Y240000D01*
X774474Y241853D01*
X773425Y243425D01*
X771853Y244474D01*
X770000Y244843D01*
D02*
G37*
G36*
X1078000Y151843D02*
X1076147Y151474D01*
X1074575Y150425D01*
X1073526Y148853D01*
X1073157Y147000D01*
X1073526Y145147D01*
X1074575Y143575D01*
X1076147Y142526D01*
X1078000Y142157D01*
X1079853Y142526D01*
X1081425Y143575D01*
X1082474Y145147D01*
X1082843Y147000D01*
X1082474Y148853D01*
X1081425Y150425D01*
X1079853Y151474D01*
X1078000Y151843D01*
D02*
G37*
G36*
X1195000D02*
X1193147Y151474D01*
X1191575Y150425D01*
X1190526Y148853D01*
X1190157Y147000D01*
X1190526Y145147D01*
X1191575Y143575D01*
X1193147Y142526D01*
X1195000Y142157D01*
X1196853Y142526D01*
X1198425Y143575D01*
X1199474Y145147D01*
X1199843Y147000D01*
X1199474Y148853D01*
X1198425Y150425D01*
X1196853Y151474D01*
X1195000Y151843D01*
D02*
G37*
G36*
X1163400Y143077D02*
X1161400D01*
X1158263Y142768D01*
X1155247Y141854D01*
X1152468Y140368D01*
X1150032Y138369D01*
X1148032Y135932D01*
X1146546Y133153D01*
X1145631Y130136D01*
X1145323Y127000D01*
X1145631Y123863D01*
X1146546Y120847D01*
X1148032Y118068D01*
X1150032Y115632D01*
X1152468Y113632D01*
X1155247Y112146D01*
X1158263Y111231D01*
X1161400Y110923D01*
X1163400D01*
X1166537Y111231D01*
X1169553Y112146D01*
X1172332Y113632D01*
X1174769Y115632D01*
X1176768Y118068D01*
X1178254Y120847D01*
X1179168Y123863D01*
X1179477Y127000D01*
X1179168Y130136D01*
X1178254Y133153D01*
X1176768Y135932D01*
X1174769Y138369D01*
X1172332Y140368D01*
X1169553Y141854D01*
X1166537Y142768D01*
X1163400Y143077D01*
D02*
G37*
G36*
X1195000Y137843D02*
X1193147Y137474D01*
X1191575Y136425D01*
X1190526Y134853D01*
X1190157Y133000D01*
X1190526Y131147D01*
X1191575Y129575D01*
X1193147Y128526D01*
X1195000Y128157D01*
X1196853Y128526D01*
X1198425Y129575D01*
X1199474Y131147D01*
X1199843Y133000D01*
X1199474Y134853D01*
X1198425Y136425D01*
X1196853Y137474D01*
X1195000Y137843D01*
D02*
G37*
G36*
X1068000Y160843D02*
X1066147Y160474D01*
X1064575Y159424D01*
X1063526Y157853D01*
X1063157Y156000D01*
X1063526Y154147D01*
X1064575Y152575D01*
X1066147Y151526D01*
X1068000Y151157D01*
X1069853Y151526D01*
X1071425Y152575D01*
X1072474Y154147D01*
X1072843Y156000D01*
X1072474Y157853D01*
X1071425Y159424D01*
X1069853Y160474D01*
X1068000Y160843D01*
D02*
G37*
G36*
X1102000Y161843D02*
X1100147Y161474D01*
X1098576Y160424D01*
X1098264Y159958D01*
X1096736D01*
X1096425Y160424D01*
X1094853Y161474D01*
X1093000Y161843D01*
X1091147Y161474D01*
X1089575Y160424D01*
X1089264Y159958D01*
X1087736D01*
X1087424Y160424D01*
X1085853Y161474D01*
X1084000Y161843D01*
X1082147Y161474D01*
X1080575Y160424D01*
X1079526Y158853D01*
X1079157Y157000D01*
X1079526Y155147D01*
X1080575Y153575D01*
X1082147Y152526D01*
X1084000Y152157D01*
X1085853Y152526D01*
X1087424Y153575D01*
X1087736Y154042D01*
X1089264D01*
X1089575Y153575D01*
X1091147Y152526D01*
X1093000Y152157D01*
X1094853Y152526D01*
X1096425Y153575D01*
X1096736Y154042D01*
X1098264D01*
X1098576Y153575D01*
X1100147Y152526D01*
X1102000Y152157D01*
X1103853Y152526D01*
X1105425Y153575D01*
X1106474Y155147D01*
X1106843Y157000D01*
X1106474Y158853D01*
X1105425Y160424D01*
X1103853Y161474D01*
X1102000Y161843D01*
D02*
G37*
G36*
X683400Y193877D02*
X681400D01*
X678263Y193568D01*
X675247Y192654D01*
X672468Y191168D01*
X670032Y189168D01*
X668032Y186732D01*
X666546Y183953D01*
X665631Y180937D01*
X665323Y177800D01*
X665631Y174664D01*
X666546Y171647D01*
X668032Y168868D01*
X670032Y166432D01*
X672468Y164432D01*
X675247Y162946D01*
X678263Y162031D01*
X681400Y161723D01*
X683400D01*
X686536Y162031D01*
X689553Y162946D01*
X692332Y164432D01*
X694769Y166432D01*
X696768Y168868D01*
X698254Y171647D01*
X699168Y174664D01*
X699477Y177800D01*
X699168Y180937D01*
X698254Y183953D01*
X696768Y186732D01*
X694769Y189168D01*
X692332Y191168D01*
X689553Y192654D01*
X686536Y193568D01*
X683400Y193877D01*
D02*
G37*
G36*
X378600Y196892D02*
X376600D01*
X372875Y196525D01*
X369294Y195439D01*
X365993Y193674D01*
X363100Y191300D01*
X360726Y188407D01*
X358961Y185106D01*
X357875Y181525D01*
X357508Y177800D01*
X357875Y174075D01*
X358961Y170494D01*
X360726Y167193D01*
X363100Y164300D01*
X365993Y161926D01*
X369294Y160161D01*
X372875Y159075D01*
X376600Y158708D01*
X378600D01*
X382325Y159075D01*
X385906Y160161D01*
X389207Y161926D01*
X392100Y164300D01*
X394474Y167193D01*
X396239Y170494D01*
X397325Y174075D01*
X397692Y177800D01*
X397325Y181525D01*
X396239Y185106D01*
X394474Y188407D01*
X392100Y191300D01*
X389207Y193674D01*
X385906Y195439D01*
X382325Y196525D01*
X378600Y196892D01*
D02*
G37*
G36*
X858600D02*
X856600D01*
X852875Y196525D01*
X849294Y195439D01*
X845993Y193674D01*
X843100Y191300D01*
X840726Y188407D01*
X838961Y185106D01*
X837875Y181525D01*
X837508Y177800D01*
X837875Y174075D01*
X838961Y170494D01*
X840726Y167193D01*
X843100Y164300D01*
X845993Y161926D01*
X849294Y160161D01*
X852875Y159075D01*
X856600Y158708D01*
X858600D01*
X862325Y159075D01*
X865906Y160161D01*
X869207Y161926D01*
X872100Y164300D01*
X874474Y167193D01*
X876239Y170494D01*
X877325Y174075D01*
X877692Y177800D01*
X877325Y181525D01*
X876239Y185106D01*
X874474Y188407D01*
X872100Y191300D01*
X869207Y193674D01*
X865906Y195439D01*
X862325Y196525D01*
X858600Y196892D01*
D02*
G37*
G36*
X159000Y256843D02*
X157147Y256474D01*
X155576Y255425D01*
X154526Y253853D01*
X154157Y252000D01*
X154526Y250147D01*
X155576Y248575D01*
X157147Y247526D01*
X159000Y247157D01*
X160853Y247526D01*
X162425Y248575D01*
X163474Y250147D01*
X163843Y252000D01*
X163474Y253853D01*
X162425Y255425D01*
X160853Y256474D01*
X159000Y256843D01*
D02*
G37*
G36*
X1071000Y315843D02*
X1069147Y315474D01*
X1067576Y314424D01*
X1066424D01*
X1064853Y315474D01*
X1063000Y315843D01*
X1061147Y315474D01*
X1059576Y314424D01*
X1058526Y312853D01*
X1058157Y311000D01*
X1058526Y309147D01*
X1059576Y307575D01*
X1061147Y306526D01*
X1063000Y306157D01*
X1064853Y306526D01*
X1066424Y307575D01*
X1067576D01*
X1069147Y306526D01*
X1071000Y306157D01*
X1072853Y306526D01*
X1074425Y307575D01*
X1075474Y309147D01*
X1075843Y311000D01*
X1075474Y312853D01*
X1074425Y314424D01*
X1072853Y315474D01*
X1071000Y315843D01*
D02*
G37*
G36*
X1120000Y325843D02*
X1118147Y325474D01*
X1116575Y324425D01*
X1115526Y322853D01*
X1115157Y321000D01*
X1115526Y319147D01*
X1116575Y317575D01*
X1118147Y316526D01*
X1120000Y316157D01*
X1121853Y316526D01*
X1123425Y317575D01*
X1124474Y319147D01*
X1124843Y321000D01*
X1124474Y322853D01*
X1123425Y324425D01*
X1121853Y325474D01*
X1120000Y325843D01*
D02*
G37*
G36*
X1150000Y310843D02*
X1148147Y310474D01*
X1146575Y309425D01*
X1145526Y307853D01*
X1145157Y306000D01*
X1145526Y304147D01*
X1146575Y302575D01*
X1148147Y301526D01*
X1150000Y301157D01*
X1151853Y301526D01*
X1153425Y302575D01*
X1154474Y304147D01*
X1154843Y306000D01*
X1154474Y307853D01*
X1153425Y309425D01*
X1151853Y310474D01*
X1150000Y310843D01*
D02*
G37*
G36*
X1134000Y319843D02*
X1132147Y319474D01*
X1130575Y318425D01*
X1129526Y316853D01*
X1129157Y315000D01*
X1129526Y313147D01*
X1130575Y311575D01*
X1132147Y310526D01*
X1134000Y310157D01*
X1135853Y310526D01*
X1137424Y311575D01*
X1138474Y313147D01*
X1138843Y315000D01*
X1138474Y316853D01*
X1137424Y318425D01*
X1135853Y319474D01*
X1134000Y319843D01*
D02*
G37*
G36*
X1140000Y328843D02*
X1138147Y328474D01*
X1136575Y327425D01*
X1135526Y325853D01*
X1135157Y324000D01*
X1135526Y322147D01*
X1136575Y320575D01*
X1138147Y319526D01*
X1140000Y319157D01*
X1141853Y319526D01*
X1143425Y320575D01*
X1144474Y322147D01*
X1144843Y324000D01*
X1144474Y325853D01*
X1143425Y327425D01*
X1141853Y328474D01*
X1140000Y328843D01*
D02*
G37*
G36*
X1108000Y383843D02*
X1106147Y383474D01*
X1104575Y382425D01*
X1103526Y380853D01*
X1103157Y379000D01*
X1103526Y377147D01*
X1104575Y375575D01*
Y374425D01*
X1103526Y372853D01*
X1103157Y371000D01*
X1103526Y369147D01*
X1104575Y367575D01*
X1106147Y366526D01*
X1108000Y366157D01*
X1109853Y366526D01*
X1111424Y367575D01*
X1112474Y369147D01*
X1112843Y371000D01*
X1112474Y372853D01*
X1111424Y374425D01*
Y375575D01*
X1112474Y377147D01*
X1112843Y379000D01*
X1112474Y380853D01*
X1111424Y382425D01*
X1109853Y383474D01*
X1108000Y383843D01*
D02*
G37*
G36*
X294000Y378843D02*
X292147Y378474D01*
X290575Y377425D01*
X289526Y375853D01*
X289157Y374000D01*
X289526Y372147D01*
X290575Y370575D01*
X292147Y369526D01*
X294000Y369157D01*
X295853Y369526D01*
X297425Y370575D01*
X298474Y372147D01*
X298843Y374000D01*
X298474Y375853D01*
X297425Y377425D01*
X295853Y378474D01*
X294000Y378843D01*
D02*
G37*
G36*
X137000Y377625D02*
X133215Y377127D01*
X129687Y375666D01*
X126658Y373341D01*
X124334Y370312D01*
X122873Y366785D01*
X122375Y363000D01*
X122873Y359215D01*
X124334Y355687D01*
X126658Y352659D01*
X129687Y350334D01*
X133215Y348873D01*
X137000Y348375D01*
X140785Y348873D01*
X144313Y350334D01*
X147341Y352659D01*
X149666Y355687D01*
X151127Y359215D01*
X151625Y363000D01*
X151127Y366785D01*
X149666Y370312D01*
X147341Y373341D01*
X144313Y375666D01*
X140785Y377127D01*
X137000Y377625D01*
D02*
G37*
G36*
X770000Y366843D02*
X768147Y366474D01*
X766575Y365425D01*
X765526Y363853D01*
X765157Y362000D01*
X765526Y360147D01*
X766575Y358576D01*
Y358424D01*
X765526Y356853D01*
X765157Y355000D01*
X765526Y353147D01*
X766575Y351575D01*
X768147Y350526D01*
X770000Y350157D01*
X771853Y350526D01*
X773425Y351575D01*
X774474Y353147D01*
X774843Y355000D01*
X774474Y356853D01*
X773425Y358424D01*
Y358576D01*
X774474Y360147D01*
X774843Y362000D01*
X774474Y363853D01*
X773425Y365425D01*
X771853Y366474D01*
X770000Y366843D01*
D02*
G37*
G36*
X261000Y264118D02*
X258659Y263652D01*
X256674Y262326D01*
X255734Y260918D01*
X254266D01*
X253326Y262326D01*
X251341Y263652D01*
X249000Y264118D01*
X246659Y263652D01*
X244674Y262326D01*
X243348Y260341D01*
X242882Y258000D01*
X243348Y255659D01*
X244674Y253674D01*
X246659Y252348D01*
X249000Y251882D01*
X251341Y252348D01*
X253326Y253674D01*
X254266Y255082D01*
X255734D01*
X256674Y253674D01*
X258659Y252348D01*
X261000Y251882D01*
X263341Y252348D01*
X265326Y253674D01*
X266652Y255659D01*
X267118Y258000D01*
X266652Y260341D01*
X265326Y262326D01*
X263341Y263652D01*
X261000Y264118D01*
D02*
G37*
G36*
X1129000Y300843D02*
X1127147Y300474D01*
X1125575Y299424D01*
X1124526Y297853D01*
X1124157Y296000D01*
X1124526Y294147D01*
X1125575Y292575D01*
X1126042Y292264D01*
Y290736D01*
X1125575Y290425D01*
X1124526Y288853D01*
X1124157Y287000D01*
X1124526Y285147D01*
X1125575Y283575D01*
X1126042Y283264D01*
Y281736D01*
X1125575Y281425D01*
X1124526Y279853D01*
X1124157Y278000D01*
X1124526Y276147D01*
X1125575Y274575D01*
X1126042Y274264D01*
Y272736D01*
X1125575Y272425D01*
X1124526Y270853D01*
X1124157Y269000D01*
X1124526Y267147D01*
X1125575Y265575D01*
X1127147Y264526D01*
X1129000Y264157D01*
X1130853Y264526D01*
X1132425Y265575D01*
X1133474Y267147D01*
X1133843Y269000D01*
X1133474Y270853D01*
X1132425Y272425D01*
X1131958Y272736D01*
Y274264D01*
X1132425Y274575D01*
X1133474Y276147D01*
X1133843Y278000D01*
X1133474Y279853D01*
X1132425Y281425D01*
X1131958Y281736D01*
Y283264D01*
X1132425Y283575D01*
X1133474Y285147D01*
X1133843Y287000D01*
X1133474Y288853D01*
X1132425Y290425D01*
X1131958Y290736D01*
Y292264D01*
X1132425Y292575D01*
X1133474Y294147D01*
X1133843Y296000D01*
X1133474Y297853D01*
X1132425Y299424D01*
X1130853Y300474D01*
X1129000Y300843D01*
D02*
G37*
G36*
X1168000Y262843D02*
X1166147Y262474D01*
X1164575Y261425D01*
X1163526Y259853D01*
X1163157Y258000D01*
X1163526Y256147D01*
X1164575Y254575D01*
X1166147Y253526D01*
X1168000Y253157D01*
X1169853Y253526D01*
X1171425Y254575D01*
X1172474Y256147D01*
X1172843Y258000D01*
X1172474Y259853D01*
X1171425Y261425D01*
X1169853Y262474D01*
X1168000Y262843D01*
D02*
G37*
G36*
X1215000Y264843D02*
X1213147Y264474D01*
X1211575Y263424D01*
X1210526Y261853D01*
X1210157Y260000D01*
X1210526Y258147D01*
X1211575Y256575D01*
X1213147Y255526D01*
X1215000Y255157D01*
X1216853Y255526D01*
X1218425Y256575D01*
X1219474Y258147D01*
X1219843Y260000D01*
X1219474Y261853D01*
X1218425Y263424D01*
X1216853Y264474D01*
X1215000Y264843D01*
D02*
G37*
G36*
Y276843D02*
X1213147Y276474D01*
X1211575Y275424D01*
X1210526Y273853D01*
X1210157Y272000D01*
X1210526Y270147D01*
X1211575Y268575D01*
X1213147Y267526D01*
X1215000Y267157D01*
X1216853Y267526D01*
X1218425Y268575D01*
X1219474Y270147D01*
X1219843Y272000D01*
X1219474Y273853D01*
X1218425Y275424D01*
X1216853Y276474D01*
X1215000Y276843D01*
D02*
G37*
G36*
X180000Y299843D02*
X178147Y299474D01*
X176575Y298424D01*
X175526Y296853D01*
X175157Y295000D01*
X175526Y293147D01*
X176575Y291575D01*
X178147Y290526D01*
X180000Y290157D01*
X181853Y290526D01*
X183425Y291575D01*
X184474Y293147D01*
X184843Y295000D01*
X184474Y296853D01*
X183425Y298424D01*
X181853Y299474D01*
X180000Y299843D01*
D02*
G37*
G36*
X137000Y342625D02*
X133215Y342127D01*
X129687Y340666D01*
X126658Y338341D01*
X124334Y335312D01*
X122873Y331785D01*
X122375Y328000D01*
X122873Y324215D01*
X124334Y320687D01*
X126658Y317659D01*
X129687Y315334D01*
X133215Y313873D01*
X137000Y313375D01*
X140785Y313873D01*
X144313Y315334D01*
X147341Y317659D01*
X147846Y318315D01*
X149113Y318398D01*
X152412Y315100D01*
Y296754D01*
X151142Y296671D01*
X151127Y296785D01*
X149666Y300313D01*
X147341Y303342D01*
X144313Y305666D01*
X140785Y307127D01*
X137000Y307625D01*
X133215Y307127D01*
X129687Y305666D01*
X126658Y303342D01*
X124334Y300313D01*
X123206Y297588D01*
X18000D01*
X16244Y297239D01*
X14756Y296244D01*
X7756Y289244D01*
X6761Y287756D01*
X6412Y286000D01*
Y-323000D01*
X6761Y-324756D01*
X7756Y-326244D01*
X13256Y-331744D01*
X14744Y-332739D01*
X16500Y-333088D01*
X123206D01*
X124334Y-335812D01*
X126658Y-338842D01*
X129687Y-341166D01*
X133215Y-342627D01*
X137000Y-343125D01*
X140785Y-342627D01*
X144313Y-341166D01*
X147341Y-338842D01*
X149666Y-335812D01*
X151127Y-332285D01*
X151625Y-328500D01*
X151202Y-325287D01*
X189900Y-286588D01*
X226000D01*
X227756Y-286239D01*
X229244Y-285244D01*
X233244Y-281244D01*
X234239Y-279756D01*
X234588Y-278000D01*
Y-271933D01*
X235266Y-270918D01*
X236733D01*
X237674Y-272326D01*
X239659Y-273652D01*
X242000Y-274118D01*
X244341Y-273652D01*
X246326Y-272326D01*
X247652Y-270341D01*
X248118Y-268000D01*
Y-255000D01*
X247652Y-252659D01*
X246326Y-250674D01*
X244326Y-248674D01*
X242341Y-247348D01*
X240000Y-246882D01*
X145679D01*
X144313Y-245834D01*
X140785Y-244373D01*
X137000Y-243875D01*
X133215Y-244373D01*
X129687Y-245834D01*
X126658Y-248158D01*
X124334Y-251187D01*
X122873Y-254715D01*
X122375Y-258500D01*
X122873Y-262285D01*
X124334Y-265812D01*
X126658Y-268841D01*
X129687Y-271166D01*
X133215Y-272627D01*
X137000Y-273125D01*
X140785Y-272627D01*
X144313Y-271166D01*
X147341Y-268841D01*
X149666Y-265812D01*
X151127Y-262285D01*
X151544Y-259118D01*
X235882D01*
Y-263718D01*
X234613Y-264103D01*
X234326Y-263674D01*
X232341Y-262348D01*
X230000Y-261882D01*
X227659Y-262348D01*
X225674Y-263674D01*
X224734Y-265082D01*
X223267D01*
X222326Y-263674D01*
X220341Y-262348D01*
X218000Y-261882D01*
X215659Y-262348D01*
X214067Y-263412D01*
X162500D01*
X160744Y-263761D01*
X159256Y-264756D01*
X143510Y-280502D01*
X140785Y-279373D01*
X137000Y-278875D01*
X133215Y-279373D01*
X129687Y-280834D01*
X126658Y-283158D01*
X124334Y-286187D01*
X123206Y-288912D01*
X31400D01*
X25588Y-283099D01*
Y269100D01*
X26900Y270412D01*
X153000D01*
X154756Y270761D01*
X156244Y271756D01*
X160244Y275756D01*
X161239Y277244D01*
X161588Y279000D01*
Y317000D01*
X161239Y318756D01*
X160244Y320244D01*
X151494Y328994D01*
X151127Y331785D01*
X149666Y335312D01*
X147341Y338341D01*
X144313Y340666D01*
X140785Y342127D01*
X137000Y342625D01*
D02*
G37*
G36*
X1187000Y289843D02*
X1185147Y289474D01*
X1183575Y288424D01*
X1182526Y286853D01*
X1182157Y285000D01*
X1182526Y283147D01*
X1183575Y281575D01*
X1185147Y280526D01*
X1187000Y280157D01*
X1188853Y280526D01*
X1190424Y281575D01*
X1191474Y283147D01*
X1191843Y285000D01*
X1191474Y286853D01*
X1190424Y288424D01*
X1188853Y289474D01*
X1187000Y289843D01*
D02*
G37*
G36*
X1215000D02*
X1213147Y289474D01*
X1211575Y288424D01*
X1210526Y286853D01*
X1210157Y285000D01*
X1210526Y283147D01*
X1211575Y281575D01*
X1213147Y280526D01*
X1215000Y280157D01*
X1216853Y280526D01*
X1218425Y281575D01*
X1219474Y283147D01*
X1219843Y285000D01*
X1219474Y286853D01*
X1218425Y288424D01*
X1216853Y289474D01*
X1215000Y289843D01*
D02*
G37*
G36*
X683400Y143077D02*
X681400D01*
X678263Y142768D01*
X675247Y141854D01*
X672468Y140368D01*
X670032Y138369D01*
X668032Y135932D01*
X666546Y133153D01*
X665631Y130136D01*
X665323Y127000D01*
X665631Y123863D01*
X666546Y120847D01*
X668032Y118068D01*
X670032Y115632D01*
X672468Y113632D01*
X675247Y112146D01*
X678263Y111231D01*
X681400Y110923D01*
X683400D01*
X686536Y111231D01*
X689553Y112146D01*
X692332Y113632D01*
X694769Y115632D01*
X696768Y118068D01*
X698254Y120847D01*
X699168Y123863D01*
X699477Y127000D01*
X699168Y130136D01*
X698254Y133153D01*
X696768Y135932D01*
X694769Y138369D01*
X692332Y140368D01*
X689553Y141854D01*
X686536Y142768D01*
X683400Y143077D01*
D02*
G37*
G36*
X1006000Y62843D02*
X1004147Y62474D01*
X1002575Y61425D01*
X1001526Y59853D01*
X1001157Y58000D01*
X1001526Y56147D01*
X1002575Y54576D01*
X1003042Y54264D01*
Y52736D01*
X1002575Y52425D01*
X1001526Y50853D01*
X1001157Y49000D01*
X1001526Y47147D01*
X1002575Y45575D01*
X1004147Y44526D01*
X1006000Y44157D01*
X1007853Y44526D01*
X1009425Y45575D01*
X1010474Y47147D01*
X1010843Y49000D01*
X1010474Y50853D01*
X1009425Y52425D01*
X1008958Y52736D01*
Y54264D01*
X1009425Y54576D01*
X1010474Y56147D01*
X1010843Y58000D01*
X1010474Y59853D01*
X1009425Y61425D01*
X1007853Y62474D01*
X1006000Y62843D01*
D02*
G37*
G36*
X1085998Y75843D02*
X1084145Y75474D01*
X1082573Y74424D01*
X1081523Y72853D01*
X1081155Y71000D01*
X1081523Y69146D01*
X1082573Y67575D01*
X1084145Y66526D01*
X1085998Y66157D01*
X1087331Y65127D01*
X1087526Y64147D01*
X1088575Y62575D01*
X1090147Y61526D01*
X1091413Y61274D01*
X1092033Y61040D01*
X1092342Y59930D01*
X1092157Y59000D01*
X1092526Y57147D01*
X1093575Y55575D01*
X1095147Y54526D01*
X1097000Y54157D01*
X1098853Y54526D01*
X1100424Y55575D01*
X1101474Y57147D01*
X1101843Y59000D01*
X1101474Y60853D01*
X1100424Y62425D01*
X1098853Y63474D01*
X1097587Y63726D01*
X1096967Y63960D01*
X1096658Y65070D01*
X1096843Y66000D01*
X1096474Y67853D01*
X1095425Y69425D01*
X1093853Y70474D01*
X1092000Y70843D01*
X1090667Y71873D01*
X1090472Y72853D01*
X1089422Y74424D01*
X1087851Y75474D01*
X1085998Y75843D01*
D02*
G37*
G36*
X1121000Y48843D02*
X1119147Y48474D01*
X1117575Y47425D01*
X1116526Y45853D01*
X1116157Y44000D01*
X1116526Y42147D01*
X1117575Y40575D01*
X1119147Y39526D01*
X1121000Y39157D01*
X1122853Y39526D01*
X1124425Y40575D01*
X1125474Y42147D01*
X1125843Y44000D01*
X1125474Y45853D01*
X1124425Y47425D01*
X1122853Y48474D01*
X1121000Y48843D01*
D02*
G37*
G36*
X602000Y44843D02*
X600147Y44474D01*
X598575Y43425D01*
X598264Y42958D01*
X596736D01*
X596425Y43425D01*
X594853Y44474D01*
X593000Y44843D01*
X591147Y44474D01*
X589576Y43425D01*
X588526Y41853D01*
X588157Y40000D01*
X588526Y38147D01*
X589576Y36575D01*
X591147Y35526D01*
X593000Y35157D01*
X594853Y35526D01*
X596425Y36575D01*
X596736Y37042D01*
X598264D01*
X598575Y36575D01*
X600147Y35526D01*
X602000Y35157D01*
X603853Y35526D01*
X605424Y36575D01*
X606474Y38147D01*
X606843Y40000D01*
X606474Y41853D01*
X605424Y43425D01*
X603853Y44474D01*
X602000Y44843D01*
D02*
G37*
G36*
X1121000Y64843D02*
X1119147Y64474D01*
X1117575Y63425D01*
X1116526Y61853D01*
X1116157Y60000D01*
X1116526Y58147D01*
X1117575Y56575D01*
X1119147Y55526D01*
X1121000Y55157D01*
X1122853Y55526D01*
X1124425Y56575D01*
X1125474Y58147D01*
X1125843Y60000D01*
X1125474Y61853D01*
X1124425Y63425D01*
X1122853Y64474D01*
X1121000Y64843D01*
D02*
G37*
G36*
X427000Y72817D02*
X424977Y72551D01*
X423092Y71770D01*
X421473Y70527D01*
X420230Y68908D01*
X419450Y67023D01*
X419183Y65000D01*
X419450Y62977D01*
X420230Y61092D01*
X421473Y59473D01*
X423092Y58230D01*
X424977Y57449D01*
X427000Y57183D01*
X429023Y57449D01*
X430908Y58230D01*
X432527Y59473D01*
X433770Y61092D01*
X434551Y62977D01*
X434817Y65000D01*
X434551Y67023D01*
X433770Y68908D01*
X432527Y70527D01*
X430908Y71770D01*
X429023Y72551D01*
X427000Y72817D01*
D02*
G37*
G36*
X903000D02*
X900977Y72551D01*
X899092Y71770D01*
X897473Y70527D01*
X896230Y68908D01*
X895450Y67023D01*
X895183Y65000D01*
X895450Y62977D01*
X896230Y61092D01*
X897473Y59473D01*
X899092Y58230D01*
X900977Y57449D01*
X903000Y57183D01*
X905023Y57449D01*
X906908Y58230D01*
X908527Y59473D01*
X909770Y61092D01*
X910551Y62977D01*
X910817Y65000D01*
X910551Y67023D01*
X909770Y68908D01*
X908527Y70527D01*
X906908Y71770D01*
X905023Y72551D01*
X903000Y72817D01*
D02*
G37*
G36*
X378600Y95292D02*
X376600D01*
X372875Y94925D01*
X369294Y93839D01*
X365993Y92074D01*
X363100Y89700D01*
X360726Y86807D01*
X358961Y83506D01*
X357875Y79925D01*
X357508Y76200D01*
X357875Y72475D01*
X358961Y68894D01*
X360726Y65593D01*
X363100Y62700D01*
X365993Y60326D01*
X369294Y58561D01*
X372875Y57475D01*
X376600Y57108D01*
X378600D01*
X382325Y57475D01*
X385906Y58561D01*
X389207Y60326D01*
X392100Y62700D01*
X394474Y65593D01*
X396239Y68894D01*
X397325Y72475D01*
X397692Y76200D01*
X397325Y79925D01*
X396239Y83506D01*
X394474Y86807D01*
X392100Y89700D01*
X389207Y92074D01*
X385906Y93839D01*
X382325Y94925D01*
X378600Y95292D01*
D02*
G37*
G36*
X858600D02*
X856600D01*
X852875Y94925D01*
X849294Y93839D01*
X845993Y92074D01*
X843100Y89700D01*
X840726Y86807D01*
X838961Y83506D01*
X837875Y79925D01*
X837508Y76200D01*
X837875Y72475D01*
X838961Y68894D01*
X840726Y65593D01*
X843100Y62700D01*
X845993Y60326D01*
X849294Y58561D01*
X852875Y57475D01*
X856600Y57108D01*
X858600D01*
X862325Y57475D01*
X865906Y58561D01*
X869207Y60326D01*
X872100Y62700D01*
X874474Y65593D01*
X876239Y68894D01*
X877325Y72475D01*
X877692Y76200D01*
X877325Y79925D01*
X876239Y83506D01*
X874474Y86807D01*
X872100Y89700D01*
X869207Y92074D01*
X865906Y93839D01*
X862325Y94925D01*
X858600Y95292D01*
D02*
G37*
G36*
X986000Y30843D02*
X984147Y30474D01*
X982576Y29425D01*
X981526Y27853D01*
X981157Y26000D01*
X981526Y24147D01*
X982576Y22575D01*
X984147Y21526D01*
X986000Y21157D01*
X987853Y21526D01*
X989425Y22575D01*
X990474Y24147D01*
X990843Y26000D01*
X990474Y27853D01*
X989425Y29425D01*
X987853Y30474D01*
X986000Y30843D01*
D02*
G37*
G36*
X465000Y51843D02*
X463147Y51474D01*
X461575Y50425D01*
X460526Y48853D01*
X460157Y47000D01*
X460526Y45147D01*
X461575Y43576D01*
X462042Y43264D01*
Y41736D01*
X461575Y41425D01*
X460526Y39853D01*
X460157Y38000D01*
X460526Y36147D01*
X461575Y34575D01*
X462042Y34264D01*
Y32736D01*
X461575Y32424D01*
X460526Y30853D01*
X460157Y29000D01*
X460526Y27147D01*
X461575Y25575D01*
X463147Y24526D01*
X465000Y24157D01*
X466853Y24526D01*
X468424Y25575D01*
X469474Y27147D01*
X469843Y29000D01*
X469474Y30853D01*
X468424Y32424D01*
X467958Y32736D01*
Y34264D01*
X468424Y34575D01*
X469474Y36147D01*
X469843Y38000D01*
X469474Y39853D01*
X468424Y41425D01*
X467958Y41736D01*
Y43264D01*
X468424Y43576D01*
X469474Y45147D01*
X469843Y47000D01*
X469474Y48853D01*
X468424Y50425D01*
X466853Y51474D01*
X465000Y51843D01*
D02*
G37*
G36*
X915000Y24843D02*
X913147Y24474D01*
X911575Y23425D01*
X910526Y21853D01*
X910157Y20000D01*
X910526Y18147D01*
X911575Y16575D01*
X913147Y15526D01*
X915000Y15157D01*
X916853Y15526D01*
X918425Y16575D01*
X919474Y18147D01*
X919843Y20000D01*
X919474Y21853D01*
X918425Y23425D01*
X916853Y24474D01*
X915000Y24843D01*
D02*
G37*
G36*
X960000Y30843D02*
X958147Y30474D01*
X956575Y29425D01*
X955526Y27853D01*
X955157Y26000D01*
X955526Y24147D01*
X956575Y22575D01*
X958147Y21526D01*
X960000Y21157D01*
X961853Y21526D01*
X963425Y22575D01*
X964474Y24147D01*
X964843Y26000D01*
X964474Y27853D01*
X963425Y29425D01*
X961853Y30474D01*
X960000Y30843D01*
D02*
G37*
G36*
X945000Y51843D02*
X943147Y51474D01*
X941575Y50425D01*
X940526Y48853D01*
X940157Y47000D01*
X940526Y45147D01*
X941575Y43576D01*
X942042Y43264D01*
Y41736D01*
X941575Y41425D01*
X940526Y39853D01*
X940157Y38000D01*
X940526Y36147D01*
X941575Y34575D01*
X942042Y34264D01*
Y32736D01*
X941575Y32424D01*
X940526Y30853D01*
X940157Y29000D01*
X940526Y27147D01*
X941575Y25575D01*
X943147Y24526D01*
X945000Y24157D01*
X946853Y24526D01*
X948425Y25575D01*
X949474Y27147D01*
X949843Y29000D01*
X949474Y30853D01*
X948425Y32424D01*
X947958Y32736D01*
Y34264D01*
X948425Y34575D01*
X949474Y36147D01*
X949843Y38000D01*
X949474Y39853D01*
X948425Y41425D01*
X947958Y41736D01*
Y43264D01*
X948425Y43576D01*
X949474Y45147D01*
X949843Y47000D01*
X949474Y48853D01*
X948425Y50425D01*
X946853Y51474D01*
X945000Y51843D01*
D02*
G37*
G36*
X1093000Y43843D02*
X1091147Y43474D01*
X1089575Y42425D01*
X1088526Y40853D01*
X1088157Y39000D01*
X1088221Y38677D01*
X1087323Y37779D01*
X1087000Y37843D01*
X1085147Y37474D01*
X1083576Y36425D01*
X1082526Y34853D01*
X1082157Y33000D01*
X1082221Y32677D01*
X1081323Y31779D01*
X1081000Y31843D01*
X1079147Y31474D01*
X1077575Y30425D01*
X1076526Y28853D01*
X1076331Y27873D01*
X1075000Y26843D01*
X1073147Y26474D01*
X1071575Y25425D01*
X1070526Y23853D01*
X1070157Y22000D01*
X1070221Y21677D01*
X1069323Y20779D01*
X1069000Y20843D01*
X1067147Y20474D01*
X1065575Y19425D01*
X1064526Y17853D01*
X1064157Y16000D01*
X1064526Y14147D01*
X1065575Y12575D01*
X1067147Y11526D01*
X1069000Y11157D01*
X1070853Y11526D01*
X1072425Y12575D01*
X1073474Y14147D01*
X1073843Y16000D01*
X1073779Y16323D01*
X1074677Y17221D01*
X1075000Y17157D01*
X1076853Y17526D01*
X1078425Y18576D01*
X1079474Y20147D01*
X1079669Y21127D01*
X1081000Y22157D01*
X1082853Y22526D01*
X1084425Y23575D01*
X1085474Y25147D01*
X1085843Y27000D01*
X1085779Y27323D01*
X1086677Y28221D01*
X1087000Y28157D01*
X1088853Y28526D01*
X1090425Y29576D01*
X1091474Y31147D01*
X1091843Y33000D01*
X1091779Y33323D01*
X1092677Y34221D01*
X1093000Y34157D01*
X1094853Y34526D01*
X1096425Y35575D01*
X1097474Y37147D01*
X1097843Y39000D01*
X1097474Y40853D01*
X1096425Y42425D01*
X1094853Y43474D01*
X1093000Y43843D01*
D02*
G37*
G36*
X1195000Y47843D02*
X1193147Y47474D01*
X1191575Y46424D01*
X1190526Y44853D01*
X1190157Y43000D01*
X1190526Y41147D01*
X1191575Y39575D01*
X1193147Y38526D01*
X1195000Y38157D01*
X1196853Y38526D01*
X1198425Y39575D01*
X1199474Y41147D01*
X1199843Y43000D01*
X1199474Y44853D01*
X1198425Y46424D01*
X1196853Y47474D01*
X1195000Y47843D01*
D02*
G37*
G36*
X1033000Y43843D02*
X1031147Y43474D01*
X1029575Y42425D01*
X1028526Y40853D01*
X1028157Y39000D01*
X1028526Y37147D01*
X1029575Y35575D01*
X1031147Y34526D01*
X1033000Y34157D01*
X1033323Y34221D01*
X1034221Y33323D01*
X1034157Y33000D01*
X1034526Y31147D01*
X1035575Y29576D01*
X1037147Y28526D01*
X1039000Y28157D01*
X1040853Y28526D01*
X1042425Y29576D01*
X1043474Y31147D01*
X1043843Y33000D01*
X1043474Y34853D01*
X1042425Y36425D01*
X1040853Y37474D01*
X1039000Y37843D01*
X1038677Y37779D01*
X1037779Y38677D01*
X1037843Y39000D01*
X1037474Y40853D01*
X1036424Y42425D01*
X1034853Y43474D01*
X1033000Y43843D01*
D02*
G37*
G36*
X507000Y42843D02*
X505147Y42474D01*
X503575Y41425D01*
X502526Y39853D01*
X502157Y38000D01*
X502526Y36147D01*
X503575Y34575D01*
X505147Y33526D01*
X507000Y33157D01*
X508853Y33526D01*
X510425Y34575D01*
X511474Y36147D01*
X511843Y38000D01*
X511474Y39853D01*
X510425Y41425D01*
X508853Y42474D01*
X507000Y42843D01*
D02*
G37*
G36*
X1078000Y60843D02*
X1076147Y60474D01*
X1074576Y59425D01*
X1073425D01*
X1071853Y60474D01*
X1070000Y60843D01*
X1068147Y60474D01*
X1066575Y59425D01*
X1066264Y58958D01*
X1064736D01*
X1064425Y59425D01*
X1062853Y60474D01*
X1061000Y60843D01*
X1059147Y60474D01*
X1057576Y59425D01*
X1056526Y57853D01*
X1056157Y56000D01*
X1056526Y54147D01*
X1057576Y52575D01*
X1059147Y51526D01*
X1061000Y51157D01*
X1062853Y51526D01*
X1064425Y52575D01*
X1064736Y53042D01*
X1066264D01*
X1066575Y52575D01*
X1068147Y51526D01*
X1070000Y51157D01*
X1071853Y51526D01*
X1073425Y52575D01*
X1074576D01*
X1076147Y51526D01*
X1078000Y51157D01*
X1079853Y51526D01*
X1081425Y52575D01*
X1082474Y54147D01*
X1082843Y56000D01*
X1082474Y57853D01*
X1081425Y59425D01*
X1079853Y60474D01*
X1078000Y60843D01*
D02*
G37*
G36*
X1132000Y103843D02*
X1130147Y103474D01*
X1128575Y102425D01*
X1127526Y100853D01*
X1127157Y99000D01*
X1127526Y97147D01*
X1128575Y95576D01*
X1130147Y94526D01*
X1132000Y94157D01*
X1133853Y94526D01*
X1135425Y95576D01*
X1136474Y97147D01*
X1136843Y99000D01*
X1136474Y100853D01*
X1135425Y102425D01*
X1133853Y103474D01*
X1132000Y103843D01*
D02*
G37*
G36*
X1031000D02*
X1029147Y103474D01*
X1027575Y102425D01*
X1026526Y100853D01*
X1026157Y99000D01*
X1026445Y97553D01*
X1026340Y97361D01*
X1025639Y96660D01*
X1025447Y96555D01*
X1024000Y96843D01*
X1022147Y96474D01*
X1020575Y95424D01*
X1019526Y93853D01*
X1019157Y92000D01*
X1019526Y90147D01*
X1020575Y88575D01*
X1022147Y87526D01*
X1024000Y87157D01*
X1025853Y87526D01*
X1027425Y88575D01*
X1028474Y90147D01*
X1028843Y92000D01*
X1028555Y93447D01*
X1028661Y93639D01*
X1029361Y94340D01*
X1029553Y94445D01*
X1031000Y94157D01*
X1032853Y94526D01*
X1034425Y95576D01*
X1035474Y97147D01*
X1035843Y99000D01*
X1035474Y100853D01*
X1034425Y102425D01*
X1032853Y103474D01*
X1031000Y103843D01*
D02*
G37*
G36*
X1097000Y97843D02*
X1095147Y97474D01*
X1093575Y96425D01*
X1092526Y94853D01*
X1092157Y93000D01*
X1092526Y91147D01*
X1093575Y89575D01*
X1095147Y88526D01*
X1097000Y88157D01*
X1098853Y88526D01*
X1100424Y89575D01*
X1101474Y91147D01*
X1101843Y93000D01*
X1101474Y94853D01*
X1100424Y96425D01*
X1098853Y97474D01*
X1097000Y97843D01*
D02*
G37*
G36*
X1006000Y103843D02*
X1004147Y103474D01*
X1002575Y102425D01*
X1001526Y100853D01*
X1001157Y99000D01*
X1001526Y97147D01*
X1002575Y95576D01*
X1004147Y94526D01*
X1006000Y94157D01*
X1007853Y94526D01*
X1009425Y95576D01*
X1010474Y97147D01*
X1010843Y99000D01*
X1010474Y100853D01*
X1009425Y102425D01*
X1007853Y103474D01*
X1006000Y103843D01*
D02*
G37*
G36*
X466000Y109843D02*
X464147Y109474D01*
X462575Y108425D01*
X461526Y106853D01*
X461157Y105000D01*
X461526Y103147D01*
X462575Y101575D01*
X464147Y100526D01*
X466000Y100157D01*
X467853Y100526D01*
X469425Y101575D01*
X470474Y103147D01*
X470843Y105000D01*
X470474Y106853D01*
X469425Y108425D01*
X467853Y109474D01*
X466000Y109843D01*
D02*
G37*
G36*
X378600Y146092D02*
X376600D01*
X372875Y145725D01*
X369294Y144639D01*
X365993Y142874D01*
X363100Y140500D01*
X360726Y137607D01*
X358961Y134306D01*
X357875Y130725D01*
X357508Y127000D01*
X357875Y123275D01*
X358961Y119694D01*
X360726Y116393D01*
X363100Y113500D01*
X365993Y111126D01*
X369294Y109361D01*
X372875Y108275D01*
X376600Y107908D01*
X378600D01*
X382325Y108275D01*
X385906Y109361D01*
X389207Y111126D01*
X392100Y113500D01*
X394474Y116393D01*
X396239Y119694D01*
X397325Y123275D01*
X397692Y127000D01*
X397325Y130725D01*
X396239Y134306D01*
X394474Y137607D01*
X392100Y140500D01*
X389207Y142874D01*
X385906Y144639D01*
X382325Y145725D01*
X378600Y146092D01*
D02*
G37*
G36*
X858600D02*
X856600D01*
X852875Y145725D01*
X849294Y144639D01*
X845993Y142874D01*
X843100Y140500D01*
X840726Y137607D01*
X838961Y134306D01*
X837875Y130725D01*
X837508Y127000D01*
X837875Y123275D01*
X838961Y119694D01*
X840726Y116393D01*
X843100Y113500D01*
X845993Y111126D01*
X849294Y109361D01*
X852875Y108275D01*
X856600Y107908D01*
X858600D01*
X862325Y108275D01*
X865906Y109361D01*
X869207Y111126D01*
X872100Y113500D01*
X874474Y116393D01*
X876239Y119694D01*
X877325Y123275D01*
X877692Y127000D01*
X877325Y130725D01*
X876239Y134306D01*
X874474Y137607D01*
X872100Y140500D01*
X869207Y142874D01*
X865906Y144639D01*
X862325Y145725D01*
X858600Y146092D01*
D02*
G37*
G36*
X945875Y109843D02*
X944022Y109474D01*
X942450Y108425D01*
X941401Y106853D01*
X941032Y105000D01*
X941401Y103147D01*
X942450Y101575D01*
X944022Y100526D01*
X945875Y100157D01*
X947728Y100526D01*
X949299Y101575D01*
X950349Y103147D01*
X950718Y105000D01*
X950349Y106853D01*
X949299Y108425D01*
X947728Y109474D01*
X945875Y109843D01*
D02*
G37*
G36*
X1067000Y112592D02*
X1065147Y112223D01*
X1063575Y111173D01*
X1062526Y109602D01*
X1062157Y107749D01*
X1062526Y105895D01*
X1063575Y104324D01*
X1065147Y103274D01*
X1067000Y102906D01*
X1068853Y103274D01*
X1070425Y104324D01*
X1071474Y105895D01*
X1071843Y107749D01*
X1071474Y109602D01*
X1070425Y111173D01*
X1068853Y112223D01*
X1067000Y112592D01*
D02*
G37*
G36*
X1141000Y95843D02*
X1139147Y95474D01*
X1137575Y94425D01*
X1136526Y92853D01*
X1136157Y91000D01*
X1136526Y89147D01*
X1137575Y87575D01*
X1139147Y86526D01*
X1141000Y86157D01*
X1142853Y86526D01*
X1144425Y87575D01*
X1145474Y89147D01*
X1145843Y91000D01*
X1145474Y92853D01*
X1144425Y94425D01*
X1142853Y95474D01*
X1141000Y95843D01*
D02*
G37*
G36*
X466000Y69843D02*
X464147Y69474D01*
X462575Y68425D01*
X461526Y66853D01*
X461157Y65000D01*
X461526Y63147D01*
X462575Y61575D01*
X464147Y60526D01*
X466000Y60157D01*
X467853Y60526D01*
X469425Y61575D01*
X470474Y63147D01*
X470843Y65000D01*
X470474Y66853D01*
X469425Y68425D01*
X467853Y69474D01*
X466000Y69843D01*
D02*
G37*
G36*
X946000D02*
X944147Y69474D01*
X942575Y68425D01*
X941526Y66853D01*
X941157Y65000D01*
X941526Y63147D01*
X942575Y61575D01*
X944147Y60526D01*
X946000Y60157D01*
X947853Y60526D01*
X949425Y61575D01*
X950474Y63147D01*
X950843Y65000D01*
X950474Y66853D01*
X949425Y68425D01*
X947853Y69474D01*
X946000Y69843D01*
D02*
G37*
G36*
X683400Y92277D02*
X681400D01*
X678263Y91968D01*
X675247Y91054D01*
X672468Y89568D01*
X670032Y87569D01*
X668032Y85132D01*
X666546Y82353D01*
X665631Y79337D01*
X665323Y76200D01*
X665631Y73064D01*
X666546Y70047D01*
X668032Y67268D01*
X670032Y64832D01*
X672468Y62832D01*
X675247Y61346D01*
X678263Y60431D01*
X681400Y60123D01*
X683400D01*
X686536Y60431D01*
X689553Y61346D01*
X692332Y62832D01*
X694769Y64832D01*
X696768Y67268D01*
X698254Y70047D01*
X699168Y73064D01*
X699477Y76200D01*
X699168Y79337D01*
X698254Y82353D01*
X696768Y85132D01*
X694769Y87569D01*
X692332Y89568D01*
X689553Y91054D01*
X686536Y91968D01*
X683400Y92277D01*
D02*
G37*
G36*
X1163400D02*
X1161400D01*
X1158263Y91968D01*
X1155247Y91054D01*
X1152468Y89568D01*
X1150032Y87569D01*
X1148032Y85132D01*
X1146546Y82353D01*
X1145631Y79337D01*
X1145323Y76200D01*
X1145631Y73064D01*
X1146546Y70047D01*
X1148032Y67268D01*
X1150032Y64832D01*
X1152468Y62832D01*
X1155247Y61346D01*
X1158263Y60431D01*
X1161400Y60123D01*
X1163400D01*
X1166537Y60431D01*
X1169553Y61346D01*
X1172332Y62832D01*
X1174769Y64832D01*
X1176768Y67268D01*
X1178254Y70047D01*
X1179168Y73064D01*
X1179477Y76200D01*
X1179168Y79337D01*
X1178254Y82353D01*
X1176768Y85132D01*
X1174769Y87569D01*
X1172332Y89568D01*
X1169553Y91054D01*
X1166537Y91968D01*
X1163400Y92277D01*
D02*
G37*
G36*
X1200000Y102104D02*
X1196867Y101691D01*
X1193948Y100482D01*
X1191441Y98559D01*
X1189518Y96052D01*
X1188309Y93133D01*
X1187896Y90000D01*
X1188309Y86867D01*
X1189518Y83948D01*
X1191441Y81441D01*
X1193948Y79518D01*
X1196867Y78309D01*
X1200000Y77896D01*
X1203133Y78309D01*
X1206052Y79518D01*
X1208559Y81441D01*
X1210482Y83948D01*
X1211691Y86867D01*
X1212104Y90000D01*
X1211691Y93133D01*
X1210482Y96052D01*
X1208559Y98559D01*
X1206052Y100482D01*
X1203133Y101691D01*
X1200000Y102104D01*
D02*
G37*
G36*
X998000Y91843D02*
X996147Y91474D01*
X994576Y90425D01*
X993526Y88853D01*
X993157Y87000D01*
X993526Y85147D01*
X994576Y83575D01*
X996147Y82526D01*
X998000Y82157D01*
X999853Y82526D01*
X1001425Y83575D01*
X1002474Y85147D01*
X1002843Y87000D01*
X1002474Y88853D01*
X1001425Y90425D01*
X999853Y91474D01*
X998000Y91843D01*
D02*
G37*
G36*
X946000Y89843D02*
X944147Y89474D01*
X942575Y88425D01*
X941526Y86853D01*
X941157Y85000D01*
X941526Y83147D01*
X942575Y81575D01*
X944147Y80526D01*
X946000Y80157D01*
X947853Y80526D01*
X949425Y81575D01*
X950474Y83147D01*
X950843Y85000D01*
X950474Y86853D01*
X949425Y88425D01*
X947853Y89474D01*
X946000Y89843D01*
D02*
G37*
G36*
X466000D02*
X464147Y89474D01*
X462575Y88425D01*
X461526Y86853D01*
X461157Y85000D01*
X461526Y83147D01*
X462575Y81575D01*
X464147Y80526D01*
X466000Y80157D01*
X467853Y80526D01*
X469425Y81575D01*
X470474Y83147D01*
X470843Y85000D01*
X470474Y86853D01*
X469425Y88425D01*
X467853Y89474D01*
X466000Y89843D01*
D02*
G37*
%LPD*%
G36*
X225412Y-271933D02*
Y-276099D01*
X224100Y-277412D01*
X188000D01*
X186244Y-277761D01*
X184756Y-278756D01*
X146216Y-317295D01*
X144313Y-315834D01*
X140785Y-314373D01*
X137000Y-313875D01*
X133215Y-314373D01*
X129687Y-315834D01*
X126658Y-318158D01*
X124334Y-321187D01*
X123206Y-323912D01*
X18400D01*
X15588Y-321100D01*
Y-287848D01*
X15833Y-287652D01*
X17535Y-287914D01*
X17756Y-288244D01*
X26256Y-296744D01*
X27744Y-297739D01*
X29500Y-298088D01*
X123206D01*
X124334Y-300813D01*
X126658Y-303841D01*
X129687Y-306166D01*
X133215Y-307627D01*
X137000Y-308125D01*
X140785Y-307627D01*
X144313Y-306166D01*
X147341Y-303841D01*
X149666Y-300813D01*
X151127Y-297285D01*
X151625Y-293500D01*
X151127Y-289715D01*
X149998Y-286990D01*
X164401Y-272588D01*
X214067D01*
X215659Y-273652D01*
X218000Y-274118D01*
X220341Y-273652D01*
X222326Y-272326D01*
X223267Y-270918D01*
X224734D01*
X225412Y-271933D01*
D02*
G37*
D18*
X735005Y-190003D02*
Y-200000D01*
X742502D01*
X740003Y-195002D01*
Y-192502D01*
X742502Y-190003D01*
X747501D01*
X750000Y-192502D01*
Y-197501D01*
X747501Y-200000D01*
D20*
X18000Y293000D02*
X137000D01*
X16500Y-328500D02*
X137000D01*
X29500Y-293500D02*
X137000D01*
X153000Y275000D02*
X157000Y279000D01*
Y317000D01*
X146000Y328000D02*
X157000Y317000D01*
X137000Y328000D02*
X146000D01*
X21000Y-285000D02*
X29500Y-293500D01*
X11000Y-323000D02*
X16500Y-328500D01*
X11000Y-323000D02*
Y286000D01*
X18000Y293000D01*
X21000Y-285000D02*
Y271000D01*
X25000Y275000D01*
X153000D01*
X226000Y-282000D02*
X230000Y-278000D01*
Y-268000D01*
X137000Y-293500D02*
X162500Y-268000D01*
X218000D01*
X137000Y-328500D02*
X141500D01*
X188000Y-282000D01*
X226000D01*
D21*
X137000Y-258500D02*
X142500Y-253000D01*
X240000D01*
X242000Y-255000D01*
Y-268000D02*
Y-255000D01*
D24*
X137000Y258000D02*
D03*
Y328000D02*
D03*
Y293000D02*
D03*
Y-363500D02*
D03*
Y-258500D02*
D03*
Y-293500D02*
D03*
Y-328500D02*
D03*
X350000Y-287500D02*
D03*
Y-362500D02*
D03*
X690000Y-287500D02*
D03*
Y-362500D02*
D03*
X860000Y-287500D02*
D03*
Y-362500D02*
D03*
X1030000Y-287500D02*
D03*
Y-362500D02*
D03*
X520000Y-287500D02*
D03*
Y-362500D02*
D03*
Y287500D02*
D03*
Y362500D02*
D03*
X690000Y287500D02*
D03*
Y362500D02*
D03*
X860000Y287500D02*
D03*
Y362500D02*
D03*
X1030000Y287500D02*
D03*
Y362500D02*
D03*
X350000Y287500D02*
D03*
Y362500D02*
D03*
D25*
X80000Y-177800D02*
D03*
Y-60000D02*
D03*
Y60000D02*
D03*
Y177800D02*
D03*
D26*
X1235500Y-239250D02*
D03*
Y-310750D02*
D03*
D27*
X158600Y-190500D02*
D03*
Y190500D02*
D03*
X1190000Y-350000D02*
D03*
Y350000D02*
D03*
X220000D02*
D03*
Y-350000D02*
D03*
D28*
X193800Y-114300D02*
D03*
X270000D02*
D03*
X193800Y-38100D02*
D03*
X270000D02*
D03*
Y114300D02*
D03*
X193800D02*
D03*
X270000Y38100D02*
D03*
X193800D02*
D03*
D29*
X610000Y-188500D02*
D03*
X620000D02*
D03*
Y-173500D02*
D03*
X610000D02*
D03*
X615000Y-181000D02*
D03*
X1090000Y-188500D02*
D03*
X1100000D02*
D03*
Y-173500D02*
D03*
X1090000D02*
D03*
X1095000Y-181000D02*
D03*
X1110000Y310500D02*
D03*
X1100000D02*
D03*
Y295500D02*
D03*
X1110000D02*
D03*
X1105000Y303000D02*
D03*
D31*
X910000Y-5000D02*
D03*
X944000D02*
D03*
X1047000Y-22000D02*
D03*
X1067000Y-32000D02*
D03*
X1099000Y-29000D02*
D03*
X1139000Y77000D02*
D03*
X1124562Y127000D02*
D03*
X1081000Y115000D02*
D03*
X1076500Y130242D02*
D03*
X1129424Y112000D02*
D03*
X984000Y65000D02*
D03*
Y85000D02*
D03*
Y105000D02*
D03*
X915000Y29000D02*
D03*
X1215000Y235000D02*
D03*
X1173000Y306000D02*
D03*
X994000Y1000D02*
D03*
X435000Y29000D02*
D03*
X1118000Y-277000D02*
D03*
X1138000D02*
D03*
X1118000Y-297000D02*
D03*
X1128000Y-285000D02*
D03*
X1202000Y-307000D02*
D03*
X1221000Y-288000D02*
D03*
X986000Y-71000D02*
D03*
X994000D02*
D03*
X1016000D02*
D03*
X1123000Y-5000D02*
D03*
X1128000Y197000D02*
D03*
Y178000D02*
D03*
Y215000D02*
D03*
Y161000D02*
D03*
X1047000Y-32000D02*
D03*
X1139000Y-216000D02*
D03*
Y-240000D02*
D03*
X1127000Y-216000D02*
D03*
Y-240000D02*
D03*
Y-159000D02*
D03*
Y-135000D02*
D03*
X1139000Y-159000D02*
D03*
Y-135000D02*
D03*
X659000Y-135000D02*
D03*
Y-159000D02*
D03*
X647000Y-135000D02*
D03*
Y-159000D02*
D03*
Y-240000D02*
D03*
Y-216000D02*
D03*
X659000Y-240000D02*
D03*
Y-216000D02*
D03*
X1056000Y156000D02*
D03*
X542000Y-28000D02*
D03*
X504000Y105000D02*
D03*
Y85000D02*
D03*
Y65000D02*
D03*
X1128000Y-99000D02*
D03*
Y-45000D02*
D03*
Y-82000D02*
D03*
Y-63000D02*
D03*
X648000Y-99000D02*
D03*
Y-45000D02*
D03*
Y-82000D02*
D03*
Y-63000D02*
D03*
X1124000Y341000D02*
D03*
X1130000Y362000D02*
D03*
X1120000D02*
D03*
X1130000Y388000D02*
D03*
X1120000D02*
D03*
X1143000Y260000D02*
D03*
X1178000Y258000D02*
D03*
X1111000Y156000D02*
D03*
X1024000Y128000D02*
D03*
X1065000Y63000D02*
D03*
X1066000Y39000D02*
D03*
X1047000Y-107000D02*
D03*
X1095000Y-250000D02*
D03*
X1074000Y-277000D02*
D03*
X1140000Y-341000D02*
D03*
X473000Y2000D02*
D03*
X986000Y40000D02*
D03*
X761000Y236000D02*
D03*
X779000D02*
D03*
Y-236000D02*
D03*
X586000Y-238000D02*
D03*
X567000Y-106000D02*
D03*
Y-31000D02*
D03*
X513000Y5000D02*
D03*
X504000Y-10000D02*
D03*
X507000Y46000D02*
D03*
X474000Y29000D02*
D03*
X65000Y-310000D02*
D03*
Y-321000D02*
D03*
Y-347000D02*
D03*
X8000D02*
D03*
X31000Y-270000D02*
D03*
X74000Y-279000D02*
D03*
X290000Y-280000D02*
D03*
Y-235000D02*
D03*
X200000D02*
D03*
X182000Y-301000D02*
D03*
X55000Y310000D02*
D03*
X75000D02*
D03*
X170000Y308000D02*
D03*
X201000Y263000D02*
D03*
X275000Y301000D02*
D03*
X280000Y280000D02*
D03*
X10000Y347000D02*
D03*
X40000D02*
D03*
X588000Y48000D02*
D03*
Y132000D02*
D03*
X607000D02*
D03*
X568000D02*
D03*
X607000Y48000D02*
D03*
X567000D02*
D03*
X564000Y9000D02*
D03*
X591000D02*
D03*
X588000Y235000D02*
D03*
X607000D02*
D03*
X568000D02*
D03*
X588000Y372000D02*
D03*
X779000Y359000D02*
D03*
X761000D02*
D03*
X1108000Y388000D02*
D03*
X282000Y374000D02*
D03*
X275000Y332000D02*
D03*
X1154000Y-266000D02*
D03*
X1189000Y-247000D02*
D03*
X1095000Y-299000D02*
D03*
X1115000Y-353000D02*
D03*
X761000Y-359000D02*
D03*
X779000D02*
D03*
X410000Y105000D02*
D03*
Y75000D02*
D03*
X425000Y45000D02*
D03*
X455000Y-5000D02*
D03*
X1060000Y280000D02*
D03*
X1061000Y249000D02*
D03*
X1093000D02*
D03*
X591000Y-18000D02*
D03*
X1072000Y341000D02*
D03*
X1062000D02*
D03*
D32*
X486000Y146000D02*
D03*
Y161000D02*
D03*
Y176000D02*
D03*
Y190000D02*
D03*
Y205000D02*
D03*
Y220000D02*
D03*
Y235000D02*
D03*
X730000Y-381802D02*
D03*
Y-362303D02*
D03*
X650000Y-381802D02*
D03*
Y-362303D02*
D03*
X990000D02*
D03*
Y-381802D02*
D03*
X820000Y-362303D02*
D03*
Y-381802D02*
D03*
X900000Y-362303D02*
D03*
Y-381802D02*
D03*
X1030000Y-382197D02*
D03*
X1050000Y-382000D02*
D03*
X505000Y-311000D02*
D03*
Y-325000D02*
D03*
Y-339000D02*
D03*
X515000Y-318000D02*
D03*
Y-332000D02*
D03*
X449000Y-318000D02*
D03*
Y-332000D02*
D03*
X459000Y-311000D02*
D03*
Y-325000D02*
D03*
Y-339000D02*
D03*
X411000Y-311000D02*
D03*
X411000Y-325000D02*
D03*
X411000Y-339000D02*
D03*
X421000Y-318000D02*
D03*
Y-332000D02*
D03*
X355000Y-318000D02*
D03*
Y-332000D02*
D03*
X365000Y-311000D02*
D03*
Y-325000D02*
D03*
Y-339000D02*
D03*
Y325000D02*
D03*
Y339000D02*
D03*
X355000Y318000D02*
D03*
Y332000D02*
D03*
X421000Y318000D02*
D03*
Y332000D02*
D03*
X411000Y311000D02*
D03*
X411000Y325000D02*
D03*
X411000Y339000D02*
D03*
X459000Y311000D02*
D03*
Y325000D02*
D03*
Y339000D02*
D03*
X449000Y318000D02*
D03*
Y332000D02*
D03*
X515000Y313000D02*
D03*
Y327000D02*
D03*
X505000Y306000D02*
D03*
Y320000D02*
D03*
Y334000D02*
D03*
X230000Y125000D02*
D03*
Y140000D02*
D03*
X250000D02*
D03*
X270000D02*
D03*
X210000D02*
D03*
X190000D02*
D03*
Y88600D02*
D03*
X210000D02*
D03*
X270000D02*
D03*
X250000D02*
D03*
X230000D02*
D03*
Y104000D02*
D03*
X170000Y140000D02*
D03*
Y90019D02*
D03*
X290000Y88600D02*
D03*
Y63800D02*
D03*
Y12400D02*
D03*
X170000Y12000D02*
D03*
Y63800D02*
D03*
X230000Y27800D02*
D03*
Y12400D02*
D03*
X250000D02*
D03*
X270000D02*
D03*
X210000D02*
D03*
X190000D02*
D03*
Y63800D02*
D03*
X210000D02*
D03*
X270000D02*
D03*
X250000D02*
D03*
X230000D02*
D03*
Y48800D02*
D03*
X290000Y-12400D02*
D03*
Y-63800D02*
D03*
X170000Y-64000D02*
D03*
Y-12400D02*
D03*
X230000Y-48400D02*
D03*
Y-63800D02*
D03*
X250000D02*
D03*
X270000D02*
D03*
X210000D02*
D03*
X190000D02*
D03*
Y-12400D02*
D03*
X210000D02*
D03*
X270000D02*
D03*
X250000D02*
D03*
X230000D02*
D03*
Y-27400D02*
D03*
X290000Y-88600D02*
D03*
X170000Y-138581D02*
D03*
Y-88600D02*
D03*
X230000Y-124600D02*
D03*
Y-140000D02*
D03*
X250000D02*
D03*
X210000D02*
D03*
X190000D02*
D03*
Y-88600D02*
D03*
X210000D02*
D03*
X270000D02*
D03*
X250000D02*
D03*
X230000D02*
D03*
Y-103600D02*
D03*
X428000Y229000D02*
D03*
X416000D02*
D03*
X440000D02*
D03*
X428000Y261000D02*
D03*
X416000D02*
D03*
X440000D02*
D03*
X370000Y362500D02*
D03*
X330000Y362000D02*
D03*
X710000Y362500D02*
D03*
X670000D02*
D03*
X540000Y343000D02*
D03*
X690000Y342803D02*
D03*
X670000Y343000D02*
D03*
X710000D02*
D03*
X880000D02*
D03*
X840000D02*
D03*
X860000Y342803D02*
D03*
X840000Y362500D02*
D03*
X880000D02*
D03*
X1010000D02*
D03*
X1050000D02*
D03*
X1030000Y382200D02*
D03*
X1010000D02*
D03*
X1050000D02*
D03*
X1010000Y268000D02*
D03*
X1030000Y267803D02*
D03*
X1010000Y287500D02*
D03*
X1030000Y307200D02*
D03*
X1010000D02*
D03*
X880000Y268000D02*
D03*
X840000D02*
D03*
X860000Y267803D02*
D03*
X840000Y287500D02*
D03*
X860000Y307200D02*
D03*
X840000D02*
D03*
X880000D02*
D03*
X710000Y268000D02*
D03*
X670000D02*
D03*
X690000Y267803D02*
D03*
X670000Y287500D02*
D03*
X710000D02*
D03*
X690000Y307200D02*
D03*
X670000D02*
D03*
X710000D02*
D03*
X540000Y268000D02*
D03*
X500000D02*
D03*
X520000Y267803D02*
D03*
X500000Y287500D02*
D03*
X540000Y283000D02*
D03*
Y300066D02*
D03*
X370000Y268000D02*
D03*
X330000D02*
D03*
X350000Y267803D02*
D03*
X330000Y287500D02*
D03*
X370000D02*
D03*
X330000Y307200D02*
D03*
X365000Y311000D02*
D03*
X1010000Y-307000D02*
D03*
X1030000Y-307197D02*
D03*
X1010000Y-287500D02*
D03*
X1030000Y-321000D02*
D03*
X1010000D02*
D03*
X997000Y-287000D02*
D03*
Y-307000D02*
D03*
X1010000Y-382000D02*
D03*
Y-362500D02*
D03*
X1050000D02*
D03*
X880000Y-382000D02*
D03*
X840000D02*
D03*
X860000Y-382197D02*
D03*
X840000Y-362500D02*
D03*
X880000D02*
D03*
X710000Y-382000D02*
D03*
X670000D02*
D03*
X690000Y-382197D02*
D03*
X670000Y-362500D02*
D03*
X710000D02*
D03*
X540000Y-382000D02*
D03*
X500000D02*
D03*
X520000Y-382197D02*
D03*
X500000Y-362500D02*
D03*
X540000D02*
D03*
Y-342800D02*
D03*
X370000Y-382000D02*
D03*
X330000D02*
D03*
X350000Y-382197D02*
D03*
X330000Y-362500D02*
D03*
X370000D02*
D03*
X880000Y-267800D02*
D03*
X840000D02*
D03*
X860000D02*
D03*
X880000Y-287500D02*
D03*
X840000D02*
D03*
X860000Y-307197D02*
D03*
X840000Y-307000D02*
D03*
X880000D02*
D03*
X710000Y-267800D02*
D03*
X670000D02*
D03*
X690000D02*
D03*
X710000Y-287500D02*
D03*
X670000D02*
D03*
X690000Y-307197D02*
D03*
X670000Y-307000D02*
D03*
X710000D02*
D03*
X540000Y-267800D02*
D03*
X500000D02*
D03*
X520000D02*
D03*
X540000Y-287500D02*
D03*
X500000D02*
D03*
X540000Y-307000D02*
D03*
X370000Y-267800D02*
D03*
X330000D02*
D03*
X350000D02*
D03*
X370000Y-287500D02*
D03*
X330000D02*
D03*
Y-307000D02*
D03*
X920000Y261000D02*
D03*
X896000D02*
D03*
X908000D02*
D03*
X920000Y229000D02*
D03*
X896000D02*
D03*
X908000D02*
D03*
X995000Y307200D02*
D03*
Y287500D02*
D03*
Y268000D02*
D03*
X1050000Y342800D02*
D03*
X1010000D02*
D03*
X1030000D02*
D03*
X50000Y95000D02*
D03*
X110000D02*
D03*
Y25000D02*
D03*
X50000D02*
D03*
Y-95000D02*
D03*
X110000D02*
D03*
Y-25000D02*
D03*
X50000D02*
D03*
X504000Y176000D02*
D03*
Y161000D02*
D03*
Y131000D02*
D03*
Y146000D02*
D03*
Y220000D02*
D03*
Y235000D02*
D03*
Y205000D02*
D03*
Y190000D02*
D03*
X542000Y190000D02*
D03*
Y205000D02*
D03*
Y235000D02*
D03*
Y220000D02*
D03*
Y146000D02*
D03*
Y131000D02*
D03*
Y161000D02*
D03*
Y176000D02*
D03*
X1023000D02*
D03*
Y161000D02*
D03*
Y146000D02*
D03*
Y220000D02*
D03*
Y205000D02*
D03*
Y190000D02*
D03*
X983000D02*
D03*
Y205000D02*
D03*
Y220000D02*
D03*
Y146000D02*
D03*
Y131000D02*
D03*
Y161000D02*
D03*
Y176000D02*
D03*
X569000Y-208000D02*
D03*
Y-223000D02*
D03*
Y-164000D02*
D03*
Y-149000D02*
D03*
Y-134000D02*
D03*
Y-179000D02*
D03*
Y-194000D02*
D03*
X528000Y-194000D02*
D03*
Y-179000D02*
D03*
Y-134000D02*
D03*
Y-149000D02*
D03*
Y-164000D02*
D03*
Y-238000D02*
D03*
Y-223000D02*
D03*
Y-208000D02*
D03*
X1049000Y-238000D02*
D03*
Y-208000D02*
D03*
Y-223000D02*
D03*
Y-164000D02*
D03*
Y-149000D02*
D03*
Y-134000D02*
D03*
Y-179000D02*
D03*
Y-194000D02*
D03*
X1008000D02*
D03*
Y-179000D02*
D03*
Y-134000D02*
D03*
Y-149000D02*
D03*
Y-164000D02*
D03*
Y-238000D02*
D03*
Y-255000D02*
D03*
Y-223000D02*
D03*
Y-208000D02*
D03*
X512000Y-194000D02*
D03*
Y-179000D02*
D03*
Y-134000D02*
D03*
Y-149000D02*
D03*
Y-164000D02*
D03*
Y-238000D02*
D03*
Y-223000D02*
D03*
Y-208000D02*
D03*
X472000D02*
D03*
Y-223000D02*
D03*
Y-238000D02*
D03*
Y-164000D02*
D03*
Y-149000D02*
D03*
Y-134000D02*
D03*
Y-179000D02*
D03*
Y-194000D02*
D03*
X952000Y-208000D02*
D03*
Y-223000D02*
D03*
Y-255000D02*
D03*
Y-238000D02*
D03*
Y-164000D02*
D03*
Y-149000D02*
D03*
Y-134000D02*
D03*
Y-179000D02*
D03*
Y-194000D02*
D03*
X992000Y-208000D02*
D03*
Y-223000D02*
D03*
Y-255000D02*
D03*
Y-238000D02*
D03*
Y-164000D02*
D03*
Y-149000D02*
D03*
Y-134000D02*
D03*
Y-179000D02*
D03*
Y-194000D02*
D03*
X967000Y176000D02*
D03*
Y161000D02*
D03*
Y131000D02*
D03*
Y146000D02*
D03*
Y220000D02*
D03*
Y205000D02*
D03*
Y190000D02*
D03*
X486000Y131000D02*
D03*
X899700Y362500D02*
D03*
Y343000D02*
D03*
X820300Y362500D02*
D03*
Y343000D02*
D03*
X650300D02*
D03*
Y362500D02*
D03*
X729700Y343000D02*
D03*
Y362500D02*
D03*
X908000Y181000D02*
D03*
X896000D02*
D03*
X920000D02*
D03*
X908000Y213000D02*
D03*
X896000D02*
D03*
X920000D02*
D03*
X440000Y213000D02*
D03*
X416000D02*
D03*
X428000D02*
D03*
X440000Y181000D02*
D03*
X416000D02*
D03*
X428000D02*
D03*
X330000Y375000D02*
D03*
X370000D02*
D03*
X410000D02*
D03*
X409700Y362500D02*
D03*
X540000Y375000D02*
D03*
X560000D02*
D03*
X559700Y362500D02*
D03*
X540000D02*
D03*
X500000Y375000D02*
D03*
X480000D02*
D03*
X480300Y362500D02*
D03*
X500000D02*
D03*
X429700Y375000D02*
D03*
X429400Y362500D02*
D03*
X370000Y388000D02*
D03*
X350000D02*
D03*
X330000D02*
D03*
X880000Y288000D02*
D03*
X280000Y-172000D02*
D03*
X340000D02*
D03*
Y-188000D02*
D03*
X325000D02*
D03*
X295000D02*
D03*
X310000D02*
D03*
X280000D02*
D03*
X340000Y-140000D02*
D03*
X325000D02*
D03*
X310000D02*
D03*
X325000Y-172000D02*
D03*
X310000D02*
D03*
X295000D02*
D03*
X327000Y-220000D02*
D03*
X312000D02*
D03*
X342000D02*
D03*
D33*
X957000Y-35000D02*
D03*
X966149D02*
D03*
X975000D02*
D03*
X966000Y-44000D02*
D03*
Y-53000D02*
D03*
Y-62000D02*
D03*
X957000Y-44000D02*
D03*
Y-53000D02*
D03*
Y-62000D02*
D03*
X975000Y-44000D02*
D03*
Y-53000D02*
D03*
X957000Y-71000D02*
D03*
X966000D02*
D03*
X486000D02*
D03*
X477000D02*
D03*
X495000Y-53000D02*
D03*
Y-44000D02*
D03*
X477000Y-62000D02*
D03*
Y-53000D02*
D03*
Y-44000D02*
D03*
X486000Y-62000D02*
D03*
Y-53000D02*
D03*
Y-44000D02*
D03*
X495000Y-35000D02*
D03*
X486149D02*
D03*
X477000D02*
D03*
D34*
X218000Y-268000D02*
D03*
X230000D02*
D03*
X242000D02*
D03*
X109000Y-311000D02*
D03*
X165000Y-283000D02*
D03*
M02*
