G04 Layer_Color=32896*
%FSLAX44Y44*%
%MOMM*%
G71*
G01*
G75*
%ADD15C,0.2000*%
%ADD19C,0.2500*%
%ADD35C,0.2540*%
%ADD168C,0.1500*%
%ADD169C,0.1000*%
D15*
X481000Y-13000D02*
G03*
X481000Y-7000I0J3000D01*
G01*
X961000Y-8000D02*
G03*
X961000Y-2000I0J3000D01*
G01*
X300700Y358175D02*
G03*
X300700Y351825I0J-3175D01*
G01*
X1082700Y-351825D02*
G03*
X1082700Y-358175I0J-3175D01*
G01*
X40000Y-307000D02*
G03*
X40000Y-313000I0J-3000D01*
G01*
X1165000Y199000D02*
X1173000D01*
X1165000Y229000D02*
X1173000D01*
Y199000D02*
Y205000D01*
Y223000D02*
Y229000D01*
X1139000Y264000D02*
X1147000D01*
X1139000Y234000D02*
X1147000D01*
X1139000Y258000D02*
Y264000D01*
Y234000D02*
Y240000D01*
X1068000Y247500D02*
Y250500D01*
X1118000Y247500D02*
Y250500D01*
X607500Y-105000D02*
X610500D01*
X607500Y-155000D02*
X610500D01*
X380000Y-261000D02*
X490000D01*
X380000Y-389000D02*
X490000D01*
Y-298500D02*
Y-261000D01*
X380000Y-298500D02*
Y-261000D01*
X490000Y-389000D02*
Y-351500D01*
X380000Y-389000D02*
Y-351500D01*
X380000Y261000D02*
X490000D01*
X380000Y389000D02*
X490000D01*
X380000Y261000D02*
Y298500D01*
X490000Y261000D02*
Y298500D01*
X380000Y351500D02*
Y389000D01*
X490000Y351500D02*
Y389000D01*
X1087500Y-105000D02*
X1090500D01*
X1087500Y-155000D02*
X1090500D01*
X1247000Y217000D02*
X1250000D01*
Y303000D01*
X1247000D02*
X1250000D01*
X1208000Y218500D02*
Y228500D01*
Y218500D02*
X1212000D01*
X1208000Y291500D02*
Y301500D01*
X1212000D01*
X1206000Y-240000D02*
X1222000D01*
X1206000Y-242000D02*
Y-240000D01*
Y-310000D02*
Y-308000D01*
Y-310000D02*
X1222000D01*
X1250000D02*
Y-240000D01*
X486000Y47000D02*
Y48000D01*
X456000D02*
X486000D01*
X456000Y47000D02*
Y48000D01*
X486000Y18000D02*
Y19000D01*
X456000Y18000D02*
X486000D01*
X456000D02*
Y19000D01*
X966000Y47000D02*
Y48000D01*
X936000D02*
X966000D01*
X936000Y47000D02*
Y48000D01*
X966000Y18000D02*
Y19000D01*
X936000Y18000D02*
X966000D01*
X936000D02*
Y19000D01*
X481000Y-4000D02*
X509000D01*
Y-16000D02*
Y-4000D01*
X481000Y-16000D02*
X509000D01*
X481000Y-7000D02*
Y-4000D01*
Y-16000D02*
Y-13000D01*
X305800Y239250D02*
Y253500D01*
X300100Y233550D02*
X305800Y239250D01*
Y196500D02*
Y210750D01*
X300100Y216450D02*
X305800Y210750D01*
X300100Y216450D02*
Y233550D01*
X204200Y253500D02*
X305800D01*
X204200Y196500D02*
Y253500D01*
Y196500D02*
X305800D01*
X505000Y-78000D02*
Y-60000D01*
X555000Y-78000D02*
Y-60000D01*
X985000Y-78000D02*
Y-60000D01*
X1035000Y-78000D02*
Y-60000D01*
X961000Y1000D02*
X989000D01*
Y-11000D02*
Y1000D01*
X961000Y-11000D02*
X989000D01*
X961000Y-2000D02*
Y1000D01*
Y-11000D02*
Y-8000D01*
X1015351Y52000D02*
X1062020Y5331D01*
X1108689Y52000D01*
X1085355Y75335D02*
X1108689Y52000D01*
X1015351D02*
X1057777Y94426D01*
X1066263D01*
X1085355Y75335D01*
X1186500Y239700D02*
Y268500D01*
X1169500Y239700D02*
Y268500D01*
X1172000Y250700D02*
X1184000D01*
X1172000D02*
X1178000Y256700D01*
X1184000Y250700D01*
X1172000Y256700D02*
X1184000D01*
X1168000Y-257000D02*
X1176500D01*
X1168000Y-287000D02*
X1176500D01*
X1168000Y-263500D02*
Y-257000D01*
Y-287000D02*
Y-280500D01*
X300700Y335000D02*
Y351825D01*
Y358175D02*
Y375000D01*
X275300D02*
X300700D01*
X275300Y335000D02*
Y375000D01*
Y335000D02*
X300700D01*
X1082700Y-375000D02*
Y-358175D01*
Y-351825D02*
Y-335000D01*
X1057300D02*
X1082700D01*
X1057300Y-375000D02*
Y-335000D01*
Y-375000D02*
X1082700D01*
X69000Y325000D02*
X77500D01*
X69000Y295000D02*
X77500D01*
X69000Y318500D02*
Y325000D01*
Y295000D02*
Y301500D01*
X961250Y176000D02*
X988750D01*
X961250Y126000D02*
X988750D01*
X506250Y-200000D02*
X533750D01*
X506250Y-250000D02*
X533750D01*
X506250Y-134000D02*
X533750D01*
X506250Y-184000D02*
X533750D01*
X986250Y-200000D02*
X1013750D01*
X986250Y-250000D02*
X1013750D01*
X481250Y176000D02*
X508750D01*
X481250Y126000D02*
X508750D01*
X481250Y244000D02*
X508750D01*
X481250Y194000D02*
X508750D01*
X986250Y-134000D02*
X1013750D01*
X986250Y-184000D02*
X1013750D01*
X961250Y244000D02*
X988750D01*
X961250Y194000D02*
X988750D01*
X12000Y-316000D02*
X40000D01*
X12000D02*
Y-304000D01*
X40000D01*
Y-316000D02*
Y-313000D01*
Y-307000D02*
Y-304000D01*
D19*
X558800Y-93000D02*
G03*
X558800Y-93000I-1250J0D01*
G01*
X1038800Y-93000D02*
G03*
X1038800Y-93000I-1250J0D01*
G01*
D35*
X482000Y43000D02*
G03*
X482000Y43000I-1000J0D01*
G01*
X962000D02*
G03*
X962000Y43000I-1000J0D01*
G01*
X299706Y204394D02*
G03*
X299706Y204394I-3606J0D01*
G01*
X44000Y-320000D02*
G03*
X44000Y-320000I-1000J0D01*
G01*
X1150500Y-309500D02*
Y-304500D01*
X1145500Y-309500D02*
X1150500D01*
X1105500D02*
X1110500D01*
X1105500D02*
Y-304500D01*
Y-269500D02*
Y-264500D01*
X1110500D01*
X1145500Y-269500D02*
Y-264500D01*
X1150500Y-269500D01*
X1145500D02*
X1150500D01*
D168*
X1092767Y113575D02*
X1095595Y110747D01*
X1110445Y131253D02*
X1113273Y128425D01*
X457200Y-127700D02*
Y-115000D01*
X405200Y-127700D02*
Y-115000D01*
X452300Y-81000D02*
X465000D01*
X452300Y-29000D02*
X465000D01*
X932300Y-81000D02*
X945000D01*
X932300Y-29000D02*
X945000D01*
X937000Y-127700D02*
Y-115000D01*
X885000Y-127700D02*
Y-115000D01*
X1210540Y95000D02*
Y114540D01*
X1189460D02*
X1210540D01*
X1189460Y95000D02*
Y114540D01*
X1210540Y68540D02*
Y85000D01*
X1207460Y65460D02*
X1210540Y68540D01*
X1189460D02*
Y85000D01*
Y68540D02*
X1192540Y65460D01*
X1207460D01*
X1210540Y-85000D02*
Y-65460D01*
X1189460D02*
X1210540D01*
X1189460Y-85000D02*
Y-65460D01*
X1210540Y-111460D02*
Y-95000D01*
X1207460Y-114540D02*
X1210540Y-111460D01*
X1189460D02*
Y-95000D01*
Y-111460D02*
X1192540Y-114540D01*
X1207460D01*
X1210540Y5000D02*
Y24540D01*
X1189460D02*
X1210540D01*
X1189460Y5000D02*
Y24540D01*
X1210540Y-21460D02*
Y-5000D01*
X1207460Y-24540D02*
X1210540Y-21460D01*
X1189460D02*
Y-5000D01*
Y-21460D02*
X1192540Y-24540D01*
X1207460D01*
X1210540Y-185000D02*
Y-165460D01*
X1189460D02*
X1210540D01*
X1189460Y-185000D02*
Y-165460D01*
X1210540Y-211460D02*
Y-195000D01*
X1207460Y-214540D02*
X1210540Y-211460D01*
X1189460D02*
Y-195000D01*
Y-211460D02*
X1192540Y-214540D01*
X1207460D01*
X1189460Y165460D02*
Y185000D01*
Y165460D02*
X1210540D01*
Y185000D01*
X1189460Y195000D02*
Y211460D01*
X1192540Y214540D01*
X1210540Y195000D02*
Y211460D01*
X1207460Y214540D02*
X1210540Y211460D01*
X1192540Y214540D02*
X1207460D01*
D169*
X631000Y-168000D02*
Y-165000D01*
X621000D02*
X631000D01*
X599000D02*
X609000D01*
X599000Y-168000D02*
Y-165000D01*
Y-197000D02*
Y-194000D01*
Y-197000D02*
X609000D01*
X621000D02*
X631000D01*
Y-194000D01*
X623750Y-167250D02*
Y-165000D01*
Y-167250D02*
X631000D01*
Y-166500D01*
X623750D02*
X631000D01*
X623750D02*
Y-165750D01*
X631000D01*
X1111000Y-168000D02*
Y-165000D01*
X1101000D02*
X1111000D01*
X1079000D02*
X1089000D01*
X1079000Y-168000D02*
Y-165000D01*
Y-197000D02*
Y-194000D01*
Y-197000D02*
X1089000D01*
X1101000D02*
X1111000D01*
Y-194000D01*
X1103750Y-167250D02*
Y-165000D01*
Y-167250D02*
X1111000D01*
Y-166500D01*
X1103750D02*
X1111000D01*
X1103750D02*
Y-165750D01*
X1111000D01*
X1089000Y287000D02*
Y290000D01*
Y287000D02*
X1099000D01*
X1111000D02*
X1121000D01*
Y290000D01*
Y316000D02*
Y319000D01*
X1111000D02*
X1121000D01*
X1089000D02*
X1099000D01*
X1089000Y316000D02*
Y319000D01*
X1096250Y287000D02*
Y289250D01*
X1089000D02*
X1096250D01*
X1089000Y288500D02*
Y289250D01*
Y288500D02*
X1096250D01*
Y287750D02*
Y288500D01*
X1089000Y287750D02*
X1096250D01*
M02*
