G04 Layer_Color=65535*
%FSLAX44Y44*%
%MOMM*%
G71*
G01*
G75*
%ADD15C,0.2000*%
%ADD22C,0.4000*%
%ADD35C,0.2540*%
D15*
X430000Y-325000D02*
G03*
X430000Y-325000I-80000J0D01*
G01*
X770000D02*
G03*
X770000Y-325000I-80000J0D01*
G01*
X940000D02*
G03*
X940000Y-325000I-80000J0D01*
G01*
X1110000D02*
G03*
X1110000Y-325000I-80000J0D01*
G01*
X600000D02*
G03*
X600000Y-325000I-80000J0D01*
G01*
Y325000D02*
G03*
X600000Y325000I-80000J0D01*
G01*
X770000D02*
G03*
X770000Y325000I-80000J0D01*
G01*
X940000D02*
G03*
X940000Y325000I-80000J0D01*
G01*
X1110000D02*
G03*
X1110000Y325000I-80000J0D01*
G01*
X430000D02*
G03*
X430000Y325000I-80000J0D01*
G01*
X405000Y-200000D02*
Y220000D01*
X655000Y-200000D02*
Y220000D01*
X765000Y-225000D02*
Y225000D01*
X655000Y-225000D02*
X765000D01*
X655000D02*
Y-200000D01*
X405000D02*
X655000D01*
X405000Y-225000D02*
Y-200000D01*
X295000Y-225000D02*
X405000D01*
X295000D02*
Y225000D01*
X405000D01*
Y200000D02*
Y225000D01*
Y200000D02*
X655000D01*
Y225000D01*
X765000D01*
X405000Y75000D02*
X655000D01*
X405000Y-75000D02*
X655000D01*
X405000Y150000D02*
X655000D01*
X405000Y-150000D02*
X655000D01*
X885000Y-200000D02*
Y220000D01*
X1135000Y-200000D02*
Y220000D01*
X1245000Y-225000D02*
Y225000D01*
X1135000Y-225000D02*
X1245000D01*
X1135000D02*
Y-200000D01*
X885000D02*
X1135000D01*
X885000Y-225000D02*
Y-200000D01*
X775000Y-225000D02*
X885000D01*
X775000D02*
Y225000D01*
X885000D01*
Y200000D02*
Y225000D01*
Y200000D02*
X1135000D01*
Y225000D01*
X1245000D01*
X885000Y75000D02*
X1135000D01*
X885000Y-75000D02*
X1135000D01*
X885000Y150000D02*
X1135000D01*
X885000Y-150000D02*
X1135000D01*
X35000Y233500D02*
Y310500D01*
Y233500D02*
X146000D01*
Y310500D01*
Y387500D01*
X35000D02*
X146000D01*
X35000Y310500D02*
Y387500D01*
Y-388000D02*
Y-311000D01*
Y-388000D02*
X146000D01*
Y-311000D01*
Y-234000D01*
X35000D02*
X146000D01*
X35000Y-311000D02*
Y-234000D01*
X1165400Y-251000D02*
X1172400D01*
X1165400Y-299000D02*
X1172400D01*
X1142400Y-251000D02*
X1149400D01*
X1142400Y-299000D02*
X1149400D01*
X1132400Y-287000D02*
Y-263000D01*
X1182400Y-287000D02*
Y-263000D01*
X194000Y-243000D02*
X266000D01*
X188500Y-277000D02*
X198500D01*
X188500D02*
Y-273000D01*
X261500Y-277000D02*
X271500D01*
Y-273000D01*
X194000Y243000D02*
X266000D01*
X261500Y277000D02*
X271500D01*
Y273000D02*
Y277000D01*
X188500D02*
X198500D01*
X188500Y273000D02*
Y277000D01*
X0Y152300D02*
X290000D01*
X0Y-228300D02*
Y228300D01*
X290000Y-228300D02*
Y228300D01*
X0Y-152300D02*
X290000D01*
X0Y228300D02*
X290000D01*
X0Y-228300D02*
X290000D01*
X384300Y-273380D02*
Y-263220D01*
X379220Y-268300D02*
X389380D01*
X724300Y-273380D02*
Y-263220D01*
X719220Y-268300D02*
X729380D01*
X894300Y-273380D02*
Y-263220D01*
X889220Y-268300D02*
X899380D01*
X1064300Y-273380D02*
Y-263220D01*
X1059220Y-268300D02*
X1069380D01*
X554300Y-273380D02*
Y-263220D01*
X549220Y-268300D02*
X559380D01*
X485700Y263220D02*
Y273380D01*
X480620Y268300D02*
X490780D01*
X655700Y263220D02*
Y273380D01*
X650620Y268300D02*
X660780D01*
X825700Y263220D02*
Y273380D01*
X820620Y268300D02*
X830780D01*
X995700Y263220D02*
Y273380D01*
X990620Y268300D02*
X1000780D01*
X315700Y263220D02*
Y273380D01*
X310620Y268300D02*
X320780D01*
X1185000Y-225000D02*
Y225000D01*
Y70000D02*
X1245000D01*
X1185000Y-70000D02*
X1245000D01*
X1185000Y205000D02*
X1245000D01*
X1215000Y-225000D02*
Y225000D01*
X1185000Y-205000D02*
X1245000D01*
D22*
X1220000Y89000D02*
X1240000D01*
X1230000Y79000D02*
X1240000Y89000D01*
X1230000Y99000D02*
X1240000Y89000D01*
X1220000Y190500D02*
X1230000Y180500D01*
X1220000Y190500D02*
X1230000Y200500D01*
X1220000Y190500D02*
X1240000D01*
X1220000Y-200000D02*
X1240000Y-180000D01*
X1220000D02*
X1240000Y-200000D01*
X1227000Y-103000D02*
X1237000Y-93000D01*
X1222000Y-78000D02*
X1237000Y-93000D01*
D35*
X1226304Y-32843D02*
X1223765Y-35382D01*
Y-40461D01*
X1226304Y-43000D01*
X1228843D01*
X1231383Y-40461D01*
Y-35382D01*
X1233922Y-32843D01*
X1236461D01*
X1239000Y-35382D01*
Y-40461D01*
X1236461Y-43000D01*
X1223765Y-27765D02*
Y-17608D01*
Y-22687D01*
X1239000D01*
Y-12530D02*
X1228843D01*
X1223765Y-7452D01*
X1228843Y-2373D01*
X1239000D01*
X1231383D01*
Y-12530D01*
X1223765Y2705D02*
Y12862D01*
Y7784D01*
X1239000D01*
X1223765Y17940D02*
X1236461D01*
X1239000Y20480D01*
Y25558D01*
X1236461Y28097D01*
X1223765D01*
X1226304Y43332D02*
X1223765Y40793D01*
Y35715D01*
X1226304Y33175D01*
X1228843D01*
X1231383Y35715D01*
Y40793D01*
X1233922Y43332D01*
X1236461D01*
X1239000Y40793D01*
Y35715D01*
X1236461Y33175D01*
X1226304Y-149843D02*
X1223765Y-152382D01*
Y-157461D01*
X1226304Y-160000D01*
X1236461D01*
X1239000Y-157461D01*
Y-152382D01*
X1236461Y-149843D01*
X1239000Y-144765D02*
X1228843D01*
X1223765Y-139687D01*
X1228843Y-134608D01*
X1239000D01*
X1231383D01*
Y-144765D01*
X1239000Y-129530D02*
X1223765D01*
X1239000Y-119373D01*
X1223765D01*
Y104000D02*
Y114157D01*
Y109078D01*
X1239000D01*
Y119235D02*
X1223765D01*
Y126853D01*
X1226304Y129392D01*
X1231383D01*
X1233922Y126853D01*
Y119235D01*
Y124313D02*
X1239000Y129392D01*
Y134470D02*
X1228843D01*
X1223765Y139549D01*
X1228843Y144627D01*
X1239000D01*
X1231383D01*
Y134470D01*
X1226304Y159862D02*
X1223765Y157323D01*
Y152244D01*
X1226304Y149705D01*
X1236461D01*
X1239000Y152244D01*
Y157323D01*
X1236461Y159862D01*
X1223765Y164940D02*
X1239000D01*
X1233922D01*
X1223765Y175097D01*
X1231383Y167479D01*
X1239000Y175097D01*
X1220265Y230000D02*
X1235500D01*
Y237617D01*
X1232961Y240157D01*
X1222804D01*
X1220265Y237617D01*
Y230000D01*
Y255392D02*
Y245235D01*
X1235500D01*
Y255392D01*
X1227883Y245235D02*
Y250313D01*
X1220265Y260470D02*
X1235500D01*
Y268088D01*
X1232961Y270627D01*
X1230422D01*
X1227883Y268088D01*
Y260470D01*
Y268088D01*
X1225343Y270627D01*
X1222804D01*
X1220265Y268088D01*
Y260470D01*
Y275705D02*
X1232961D01*
X1235500Y278244D01*
Y283323D01*
X1232961Y285862D01*
X1220265D01*
X1222804Y301097D02*
X1220265Y298558D01*
Y293479D01*
X1222804Y290940D01*
X1232961D01*
X1235500Y293479D01*
Y298558D01*
X1232961Y301097D01*
X1227883D01*
Y296019D01*
X1216765Y-295000D02*
X1229461D01*
X1232000Y-292461D01*
Y-287383D01*
X1229461Y-284843D01*
X1216765D01*
X1219304Y-269608D02*
X1216765Y-272147D01*
Y-277226D01*
X1219304Y-279765D01*
X1221843D01*
X1224382Y-277226D01*
Y-272147D01*
X1226922Y-269608D01*
X1229461D01*
X1232000Y-272147D01*
Y-277226D01*
X1229461Y-279765D01*
X1216765Y-264530D02*
X1232000D01*
Y-256912D01*
X1229461Y-254373D01*
X1226922D01*
X1224382Y-256912D01*
Y-264530D01*
Y-256912D01*
X1221843Y-254373D01*
X1219304D01*
X1216765Y-256912D01*
Y-264530D01*
M02*
