G04 Layer_Color=8388736*
%FSLAX44Y44*%
%MOMM*%
G71*
G01*
G75*
%ADD94R,1.2032X0.6532*%
%ADD95R,1.6032X0.8032*%
%ADD96R,1.0032X1.5032*%
%ADD97R,2.3032X3.2032*%
%ADD98O,3.2032X3.0032*%
%ADD99C,2.7032*%
%ADD100C,7.6032*%
%ADD101C,2.1032*%
%ADD102C,8.2032*%
%ADD103C,3.8032*%
%ADD104C,2.0032*%
D94*
X1157400Y-299500D02*
D03*
Y-250500D02*
D03*
D95*
X1181400Y-256500D02*
D03*
Y-293500D02*
D03*
X1133400D02*
D03*
Y-256500D02*
D03*
D96*
X217500Y-281000D02*
D03*
X242500D02*
D03*
X230000D02*
D03*
X255000D02*
D03*
X205000D02*
D03*
X242500Y281000D02*
D03*
X217500D02*
D03*
X230000D02*
D03*
X205000D02*
D03*
X255000D02*
D03*
D97*
X280500Y-255000D02*
D03*
X179500D02*
D03*
Y255000D02*
D03*
X280500D02*
D03*
D98*
X682400Y25400D02*
D03*
Y76200D02*
D03*
Y127000D02*
D03*
Y177800D02*
D03*
Y-25400D02*
D03*
Y-76200D02*
D03*
Y-127000D02*
D03*
Y-177800D02*
D03*
X377600Y25400D02*
D03*
Y76200D02*
D03*
Y127000D02*
D03*
Y177800D02*
D03*
Y-25400D02*
D03*
Y-76200D02*
D03*
Y-127000D02*
D03*
Y-177800D02*
D03*
X1162400Y25400D02*
D03*
Y76200D02*
D03*
Y127000D02*
D03*
Y177800D02*
D03*
Y-25400D02*
D03*
Y-76200D02*
D03*
Y-127000D02*
D03*
Y-177800D02*
D03*
X857600Y25400D02*
D03*
Y76200D02*
D03*
Y127000D02*
D03*
Y177800D02*
D03*
Y-25400D02*
D03*
Y-76200D02*
D03*
Y-127000D02*
D03*
Y-177800D02*
D03*
D99*
X137000Y258000D02*
D03*
Y363000D02*
D03*
Y328000D02*
D03*
Y293000D02*
D03*
Y-363500D02*
D03*
Y-258500D02*
D03*
Y-293500D02*
D03*
Y-328500D02*
D03*
X350000Y-287500D02*
D03*
Y-362500D02*
D03*
X690000Y-287500D02*
D03*
Y-362500D02*
D03*
X860000Y-287500D02*
D03*
Y-362500D02*
D03*
X1030000Y-287500D02*
D03*
Y-362500D02*
D03*
X520000Y-287500D02*
D03*
Y-362500D02*
D03*
Y287500D02*
D03*
Y362500D02*
D03*
X690000Y287500D02*
D03*
Y362500D02*
D03*
X860000Y287500D02*
D03*
Y362500D02*
D03*
X1030000Y287500D02*
D03*
Y362500D02*
D03*
X350000Y287500D02*
D03*
Y362500D02*
D03*
D100*
X80000Y-177800D02*
D03*
Y-60000D02*
D03*
Y60000D02*
D03*
Y177800D02*
D03*
D101*
X1235500Y-239250D02*
D03*
Y-310750D02*
D03*
D102*
X158600Y-190500D02*
D03*
Y190500D02*
D03*
X1190000Y-350000D02*
D03*
Y350000D02*
D03*
X220000D02*
D03*
Y-350000D02*
D03*
D103*
X193800Y-114300D02*
D03*
X270000D02*
D03*
X193800Y-38100D02*
D03*
X270000D02*
D03*
Y114300D02*
D03*
X193800D02*
D03*
X270000Y38100D02*
D03*
X193800D02*
D03*
D104*
X1200000Y90000D02*
D03*
Y-90000D02*
D03*
Y0D02*
D03*
Y-190000D02*
D03*
Y190000D02*
D03*
M02*
